<svg xmlns="http://www.w3.org/2000/svg" version="1.1" xmlns:xlink="http://www.w3.org/1999/xlink" xmlns:svgjs="http://svgjs.dev/svgjs" viewBox="0 0 800 800"><defs><linearGradient gradientTransform="rotate(270)" x1="50%" y1="0%" x2="50%" y2="100%" id="sssquiggly-grad"><stop stop-color="hsl(206, 75%, 49%)" stop-opacity="1" offset="0%"></stop><stop stop-color="hsl(331, 90%, 56%)" stop-opacity="1" offset="100%"></stop></linearGradient></defs><g stroke-width="2.5" stroke="url(#sssquiggly-grad)" fill="none" stroke-linecap="round" transform="matrix(1,0,0,1,0,-459.7436866760254)"><path d="M10,10C21.805555555555557,10.833333333333334,40.97222222222223,19.625,66.66666666666667,14C92.36111111111111,8.375,105.55555555555557,-21.791666666666668,133.33333333333334,-17C161.11111111111111,-12.208333333333332,172.22222222222223,36.166666666666664,200,37C227.77777777777777,37.833333333333336,238.8888888888889,-12.166666666666666,266.6666666666667,-13C294.44444444444446,-13.833333333333334,305.5555555555556,30.916666666666668,333.33333333333337,33C361.11111111111114,35.083333333333336,372.22222222222223,-5.291666666666666,400,-3C427.77777777777777,-0.7083333333333335,438.8888888888889,46.291666666666664,466.6666666666667,44C494.44444444444446,41.708333333333336,505.5555555555556,-13.791666666666666,533.3333333333334,-14C561.1111111111111,-14.208333333333334,572.2222222222222,38.208333333333336,600,43C627.7777777777778,47.791666666666664,638.8888888888889,6.083333333333333,666.6666666666667,9C694.4444444444446,11.916666666666668,707.6388888888889,56.791666666666664,733.3333333333334,57C759.0277777777778,57.208333333333336,778.1944444444445,19.791666666666664,790,10"></path><path d="M10,10C21.805555555555557,10.833333333333334,40.97222222222223,19.625,66.66666666666667,14C92.36111111111111,8.375,105.55555555555557,-21.791666666666668,133.33333333333334,-17C161.11111111111111,-12.208333333333332,172.22222222222223,36.166666666666664,200,37C227.77777777777777,37.833333333333336,238.8888888888889,-12.166666666666666,266.6666666666667,-13C294.44444444444446,-13.833333333333334,305.5555555555556,30.916666666666668,333.33333333333337,33C361.11111111111114,35.083333333333336,372.22222222222223,-5.291666666666666,400,-3C427.77777777777777,-0.7083333333333335,438.8888888888889,46.291666666666664,466.6666666666667,44C494.44444444444446,41.708333333333336,505.5555555555556,-13.791666666666666,533.3333333333334,-14C561.1111111111111,-14.208333333333334,572.2222222222222,38.208333333333336,600,43C627.7777777777778,47.791666666666664,638.8888888888889,6.083333333333333,666.6666666666667,9C694.4444444444446,11.916666666666668,707.6388888888889,56.791666666666664,733.3333333333334,57C759.0277777777778,57.208333333333336,778.1944444444445,19.791666666666664,790,10" transform="matrix(1,0,0,1,0,1680)"></path><path d="M10,10C21.805555555555557,10.833333333333334,40.97222222222223,19.625,66.66666666666667,14C92.36111111111111,8.375,105.55555555555557,-21.791666666666668,133.33333333333334,-17C161.11111111111111,-12.208333333333332,172.22222222222223,36.166666666666664,200,37C227.77777777777777,37.833333333333336,238.8888888888889,-12.166666666666666,266.6666666666667,-13C294.44444444444446,-13.833333333333334,305.5555555555556,30.916666666666668,333.33333333333337,33C361.11111111111114,35.083333333333336,372.22222222222223,-5.291666666666666,400,-3C427.77777777777777,-0.7083333333333335,438.8888888888889,46.291666666666664,466.6666666666667,44C494.44444444444446,41.708333333333336,505.5555555555556,-13.791666666666666,533.3333333333334,-14C561.1111111111111,-14.208333333333334,572.2222222222222,38.208333333333336,600,43C627.7777777777778,47.791666666666664,638.8888888888889,6.083333333333333,666.6666666666667,9C694.4444444444446,11.916666666666668,707.6388888888889,56.791666666666664,733.3333333333334,57C759.0277777777778,57.208333333333336,778.1944444444445,19.791666666666664,790,10" transform="matrix(1,0,0,1,0,1600)"></path><path d="M10,10C21.805555555555557,10.833333333333334,40.97222222222223,19.625,66.66666666666667,14C92.36111111111111,8.375,105.55555555555557,-21.791666666666668,133.33333333333334,-17C161.11111111111111,-12.208333333333332,172.22222222222223,36.166666666666664,200,37C227.77777777777777,37.833333333333336,238.8888888888889,-12.166666666666666,266.6666666666667,-13C294.44444444444446,-13.833333333333334,305.5555555555556,30.916666666666668,333.33333333333337,33C361.11111111111114,35.083333333333336,372.22222222222223,-5.291666666666666,400,-3C427.77777777777777,-0.7083333333333335,438.8888888888889,46.291666666666664,466.6666666666667,44C494.44444444444446,41.708333333333336,505.5555555555556,-13.791666666666666,533.3333333333334,-14C561.1111111111111,-14.208333333333334,572.2222222222222,38.208333333333336,600,43C627.7777777777778,47.791666666666664,638.8888888888889,6.083333333333333,666.6666666666667,9C694.4444444444446,11.916666666666668,707.6388888888889,56.791666666666664,733.3333333333334,57C759.0277777777778,57.208333333333336,778.1944444444445,19.791666666666664,790,10" transform="matrix(1,0,0,1,0,1520)"></path><path d="M10,10C21.805555555555557,10.833333333333334,40.97222222222223,19.625,66.66666666666667,14C92.36111111111111,8.375,105.55555555555557,-21.791666666666668,133.33333333333334,-17C161.11111111111111,-12.208333333333332,172.22222222222223,36.166666666666664,200,37C227.77777777777777,37.833333333333336,238.8888888888889,-12.166666666666666,266.6666666666667,-13C294.44444444444446,-13.833333333333334,305.5555555555556,30.916666666666668,333.33333333333337,33C361.11111111111114,35.083333333333336,372.22222222222223,-5.291666666666666,400,-3C427.77777777777777,-0.7083333333333335,438.8888888888889,46.291666666666664,466.6666666666667,44C494.44444444444446,41.708333333333336,505.5555555555556,-13.791666666666666,533.3333333333334,-14C561.1111111111111,-14.208333333333334,572.2222222222222,38.208333333333336,600,43C627.7777777777778,47.791666666666664,638.8888888888889,6.083333333333333,666.6666666666667,9C694.4444444444446,11.916666666666668,707.6388888888889,56.791666666666664,733.3333333333334,57C759.0277777777778,57.208333333333336,778.1944444444445,19.791666666666664,790,10" transform="matrix(1,0,0,1,0,1440)"></path><path d="M10,10C21.805555555555557,10.833333333333334,40.97222222222223,19.625,66.66666666666667,14C92.36111111111111,8.375,105.55555555555557,-21.791666666666668,133.33333333333334,-17C161.11111111111111,-12.208333333333332,172.22222222222223,36.166666666666664,200,37C227.77777777777777,37.833333333333336,238.8888888888889,-12.166666666666666,266.6666666666667,-13C294.44444444444446,-13.833333333333334,305.5555555555556,30.916666666666668,333.33333333333337,33C361.11111111111114,35.083333333333336,372.22222222222223,-5.291666666666666,400,-3C427.77777777777777,-0.7083333333333335,438.8888888888889,46.291666666666664,466.6666666666667,44C494.44444444444446,41.708333333333336,505.5555555555556,-13.791666666666666,533.3333333333334,-14C561.1111111111111,-14.208333333333334,572.2222222222222,38.208333333333336,600,43C627.7777777777778,47.791666666666664,638.8888888888889,6.083333333333333,666.6666666666667,9C694.4444444444446,11.916666666666668,707.6388888888889,56.791666666666664,733.3333333333334,57C759.0277777777778,57.208333333333336,778.1944444444445,19.791666666666664,790,10" transform="matrix(1,0,0,1,0,1360)"></path><path d="M10,10C21.805555555555557,10.833333333333334,40.97222222222223,19.625,66.66666666666667,14C92.36111111111111,8.375,105.55555555555557,-21.791666666666668,133.33333333333334,-17C161.11111111111111,-12.208333333333332,172.22222222222223,36.166666666666664,200,37C227.77777777777777,37.833333333333336,238.8888888888889,-12.166666666666666,266.6666666666667,-13C294.44444444444446,-13.833333333333334,305.5555555555556,30.916666666666668,333.33333333333337,33C361.11111111111114,35.083333333333336,372.22222222222223,-5.291666666666666,400,-3C427.77777777777777,-0.7083333333333335,438.8888888888889,46.291666666666664,466.6666666666667,44C494.44444444444446,41.708333333333336,505.5555555555556,-13.791666666666666,533.3333333333334,-14C561.1111111111111,-14.208333333333334,572.2222222222222,38.208333333333336,600,43C627.7777777777778,47.791666666666664,638.8888888888889,6.083333333333333,666.6666666666667,9C694.4444444444446,11.916666666666668,707.6388888888889,56.791666666666664,733.3333333333334,57C759.0277777777778,57.208333333333336,778.1944444444445,19.791666666666664,790,10" transform="matrix(1,0,0,1,0,1280)"></path><path d="M10,10C21.805555555555557,10.833333333333334,40.97222222222223,19.625,66.66666666666667,14C92.36111111111111,8.375,105.55555555555557,-21.791666666666668,133.33333333333334,-17C161.11111111111111,-12.208333333333332,172.22222222222223,36.166666666666664,200,37C227.77777777777777,37.833333333333336,238.8888888888889,-12.166666666666666,266.6666666666667,-13C294.44444444444446,-13.833333333333334,305.5555555555556,30.916666666666668,333.33333333333337,33C361.11111111111114,35.083333333333336,372.22222222222223,-5.291666666666666,400,-3C427.77777777777777,-0.7083333333333335,438.8888888888889,46.291666666666664,466.6666666666667,44C494.44444444444446,41.708333333333336,505.5555555555556,-13.791666666666666,533.3333333333334,-14C561.1111111111111,-14.208333333333334,572.2222222222222,38.208333333333336,600,43C627.7777777777778,47.791666666666664,638.8888888888889,6.083333333333333,666.6666666666667,9C694.4444444444446,11.916666666666668,707.6388888888889,56.791666666666664,733.3333333333334,57C759.0277777777778,57.208333333333336,778.1944444444445,19.791666666666664,790,10" transform="matrix(1,0,0,1,0,1200)"></path><path d="M10,10C21.805555555555557,10.833333333333334,40.97222222222223,19.625,66.66666666666667,14C92.36111111111111,8.375,105.55555555555557,-21.791666666666668,133.33333333333334,-17C161.11111111111111,-12.208333333333332,172.22222222222223,36.166666666666664,200,37C227.77777777777777,37.833333333333336,238.8888888888889,-12.166666666666666,266.6666666666667,-13C294.44444444444446,-13.833333333333334,305.5555555555556,30.916666666666668,333.33333333333337,33C361.11111111111114,35.083333333333336,372.22222222222223,-5.291666666666666,400,-3C427.77777777777777,-0.7083333333333335,438.8888888888889,46.291666666666664,466.6666666666667,44C494.44444444444446,41.708333333333336,505.5555555555556,-13.791666666666666,533.3333333333334,-14C561.1111111111111,-14.208333333333334,572.2222222222222,38.208333333333336,600,43C627.7777777777778,47.791666666666664,638.8888888888889,6.083333333333333,666.6666666666667,9C694.4444444444446,11.916666666666668,707.6388888888889,56.791666666666664,733.3333333333334,57C759.0277777777778,57.208333333333336,778.1944444444445,19.791666666666664,790,10" transform="matrix(1,0,0,1,0,1120)"></path><path d="M10,10C21.805555555555557,10.833333333333334,40.97222222222223,19.625,66.66666666666667,14C92.36111111111111,8.375,105.55555555555557,-21.791666666666668,133.33333333333334,-17C161.11111111111111,-12.208333333333332,172.22222222222223,36.166666666666664,200,37C227.77777777777777,37.833333333333336,238.8888888888889,-12.166666666666666,266.6666666666667,-13C294.44444444444446,-13.833333333333334,305.5555555555556,30.916666666666668,333.33333333333337,33C361.11111111111114,35.083333333333336,372.22222222222223,-5.291666666666666,400,-3C427.77777777777777,-0.7083333333333335,438.8888888888889,46.291666666666664,466.6666666666667,44C494.44444444444446,41.708333333333336,505.5555555555556,-13.791666666666666,533.3333333333334,-14C561.1111111111111,-14.208333333333334,572.2222222222222,38.208333333333336,600,43C627.7777777777778,47.791666666666664,638.8888888888889,6.083333333333333,666.6666666666667,9C694.4444444444446,11.916666666666668,707.6388888888889,56.791666666666664,733.3333333333334,57C759.0277777777778,57.208333333333336,778.1944444444445,19.791666666666664,790,10" transform="matrix(1,0,0,1,0,1040)"></path><path d="M10,10C21.805555555555557,10.833333333333334,40.97222222222223,19.625,66.66666666666667,14C92.36111111111111,8.375,105.55555555555557,-21.791666666666668,133.33333333333334,-17C161.11111111111111,-12.208333333333332,172.22222222222223,36.166666666666664,200,37C227.77777777777777,37.833333333333336,238.8888888888889,-12.166666666666666,266.6666666666667,-13C294.44444444444446,-13.833333333333334,305.5555555555556,30.916666666666668,333.33333333333337,33C361.11111111111114,35.083333333333336,372.22222222222223,-5.291666666666666,400,-3C427.77777777777777,-0.7083333333333335,438.8888888888889,46.291666666666664,466.6666666666667,44C494.44444444444446,41.708333333333336,505.5555555555556,-13.791666666666666,533.3333333333334,-14C561.1111111111111,-14.208333333333334,572.2222222222222,38.208333333333336,600,43C627.7777777777778,47.791666666666664,638.8888888888889,6.083333333333333,666.6666666666667,9C694.4444444444446,11.916666666666668,707.6388888888889,56.791666666666664,733.3333333333334,57C759.0277777777778,57.208333333333336,778.1944444444445,19.791666666666664,790,10" transform="matrix(1,0,0,1,0,960)"></path><path d="M10,10C21.805555555555557,10.833333333333334,40.97222222222223,19.625,66.66666666666667,14C92.36111111111111,8.375,105.55555555555557,-21.791666666666668,133.33333333333334,-17C161.11111111111111,-12.208333333333332,172.22222222222223,36.166666666666664,200,37C227.77777777777777,37.833333333333336,238.8888888888889,-12.166666666666666,266.6666666666667,-13C294.44444444444446,-13.833333333333334,305.5555555555556,30.916666666666668,333.33333333333337,33C361.11111111111114,35.083333333333336,372.22222222222223,-5.291666666666666,400,-3C427.77777777777777,-0.7083333333333335,438.8888888888889,46.291666666666664,466.6666666666667,44C494.44444444444446,41.708333333333336,505.5555555555556,-13.791666666666666,533.3333333333334,-14C561.1111111111111,-14.208333333333334,572.2222222222222,38.208333333333336,600,43C627.7777777777778,47.791666666666664,638.8888888888889,6.083333333333333,666.6666666666667,9C694.4444444444446,11.916666666666668,707.6388888888889,56.791666666666664,733.3333333333334,57C759.0277777777778,57.208333333333336,778.1944444444445,19.791666666666664,790,10" transform="matrix(1,0,0,1,0,880)"></path><path d="M10,10C21.805555555555557,10.833333333333334,40.97222222222223,19.625,66.66666666666667,14C92.36111111111111,8.375,105.55555555555557,-21.791666666666668,133.33333333333334,-17C161.11111111111111,-12.208333333333332,172.22222222222223,36.166666666666664,200,37C227.77777777777777,37.833333333333336,238.8888888888889,-12.166666666666666,266.6666666666667,-13C294.44444444444446,-13.833333333333334,305.5555555555556,30.916666666666668,333.33333333333337,33C361.11111111111114,35.083333333333336,372.22222222222223,-5.291666666666666,400,-3C427.77777777777777,-0.7083333333333335,438.8888888888889,46.291666666666664,466.6666666666667,44C494.44444444444446,41.708333333333336,505.5555555555556,-13.791666666666666,533.3333333333334,-14C561.1111111111111,-14.208333333333334,572.2222222222222,38.208333333333336,600,43C627.7777777777778,47.791666666666664,638.8888888888889,6.083333333333333,666.6666666666667,9C694.4444444444446,11.916666666666668,707.6388888888889,56.791666666666664,733.3333333333334,57C759.0277777777778,57.208333333333336,778.1944444444445,19.791666666666664,790,10" transform="matrix(1,0,0,1,0,800)"></path><path d="M10,10C21.805555555555557,10.833333333333334,40.97222222222223,19.625,66.66666666666667,14C92.36111111111111,8.375,105.55555555555557,-21.791666666666668,133.33333333333334,-17C161.11111111111111,-12.208333333333332,172.22222222222223,36.166666666666664,200,37C227.77777777777777,37.833333333333336,238.8888888888889,-12.166666666666666,266.6666666666667,-13C294.44444444444446,-13.833333333333334,305.5555555555556,30.916666666666668,333.33333333333337,33C361.11111111111114,35.083333333333336,372.22222222222223,-5.291666666666666,400,-3C427.77777777777777,-0.7083333333333335,438.8888888888889,46.291666666666664,466.6666666666667,44C494.44444444444446,41.708333333333336,505.5555555555556,-13.791666666666666,533.3333333333334,-14C561.1111111111111,-14.208333333333334,572.2222222222222,38.208333333333336,600,43C627.7777777777778,47.791666666666664,638.8888888888889,6.083333333333333,666.6666666666667,9C694.4444444444446,11.916666666666668,707.6388888888889,56.791666666666664,733.3333333333334,57C759.0277777777778,57.208333333333336,778.1944444444445,19.791666666666664,790,10" transform="matrix(1,0,0,1,0,720)"></path><path d="M10,10C21.805555555555557,10.833333333333334,40.97222222222223,19.625,66.66666666666667,14C92.36111111111111,8.375,105.55555555555557,-21.791666666666668,133.33333333333334,-17C161.11111111111111,-12.208333333333332,172.22222222222223,36.166666666666664,200,37C227.77777777777777,37.833333333333336,238.8888888888889,-12.166666666666666,266.6666666666667,-13C294.44444444444446,-13.833333333333334,305.5555555555556,30.916666666666668,333.33333333333337,33C361.11111111111114,35.083333333333336,372.22222222222223,-5.291666666666666,400,-3C427.77777777777777,-0.7083333333333335,438.8888888888889,46.291666666666664,466.6666666666667,44C494.44444444444446,41.708333333333336,505.5555555555556,-13.791666666666666,533.3333333333334,-14C561.1111111111111,-14.208333333333334,572.2222222222222,38.208333333333336,600,43C627.7777777777778,47.791666666666664,638.8888888888889,6.083333333333333,666.6666666666667,9C694.4444444444446,11.916666666666668,707.6388888888889,56.791666666666664,733.3333333333334,57C759.0277777777778,57.208333333333336,778.1944444444445,19.791666666666664,790,10" transform="matrix(1,0,0,1,0,640)"></path><path d="M10,10C21.805555555555557,10.833333333333334,40.97222222222223,19.625,66.66666666666667,14C92.36111111111111,8.375,105.55555555555557,-21.791666666666668,133.33333333333334,-17C161.11111111111111,-12.208333333333332,172.22222222222223,36.166666666666664,200,37C227.77777777777777,37.833333333333336,238.8888888888889,-12.166666666666666,266.6666666666667,-13C294.44444444444446,-13.833333333333334,305.5555555555556,30.916666666666668,333.33333333333337,33C361.11111111111114,35.083333333333336,372.22222222222223,-5.291666666666666,400,-3C427.77777777777777,-0.7083333333333335,438.8888888888889,46.291666666666664,466.6666666666667,44C494.44444444444446,41.708333333333336,505.5555555555556,-13.791666666666666,533.3333333333334,-14C561.1111111111111,-14.208333333333334,572.2222222222222,38.208333333333336,600,43C627.7777777777778,47.791666666666664,638.8888888888889,6.083333333333333,666.6666666666667,9C694.4444444444446,11.916666666666668,707.6388888888889,56.791666666666664,733.3333333333334,57C759.0277777777778,57.208333333333336,778.1944444444445,19.791666666666664,790,10" transform="matrix(1,0,0,1,0,560)"></path><path d="M10,10C21.805555555555557,10.833333333333334,40.97222222222223,19.625,66.66666666666667,14C92.36111111111111,8.375,105.55555555555557,-21.791666666666668,133.33333333333334,-17C161.11111111111111,-12.208333333333332,172.22222222222223,36.166666666666664,200,37C227.77777777777777,37.833333333333336,238.8888888888889,-12.166666666666666,266.6666666666667,-13C294.44444444444446,-13.833333333333334,305.5555555555556,30.916666666666668,333.33333333333337,33C361.11111111111114,35.083333333333336,372.22222222222223,-5.291666666666666,400,-3C427.77777777777777,-0.7083333333333335,438.8888888888889,46.291666666666664,466.6666666666667,44C494.44444444444446,41.708333333333336,505.5555555555556,-13.791666666666666,533.3333333333334,-14C561.1111111111111,-14.208333333333334,572.2222222222222,38.208333333333336,600,43C627.7777777777778,47.791666666666664,638.8888888888889,6.083333333333333,666.6666666666667,9C694.4444444444446,11.916666666666668,707.6388888888889,56.791666666666664,733.3333333333334,57C759.0277777777778,57.208333333333336,778.1944444444445,19.791666666666664,790,10" transform="matrix(1,0,0,1,0,480)"></path><path d="M10,10C21.805555555555557,10.833333333333334,40.97222222222223,19.625,66.66666666666667,14C92.36111111111111,8.375,105.55555555555557,-21.791666666666668,133.33333333333334,-17C161.11111111111111,-12.208333333333332,172.22222222222223,36.166666666666664,200,37C227.77777777777777,37.833333333333336,238.8888888888889,-12.166666666666666,266.6666666666667,-13C294.44444444444446,-13.833333333333334,305.5555555555556,30.916666666666668,333.33333333333337,33C361.11111111111114,35.083333333333336,372.22222222222223,-5.291666666666666,400,-3C427.77777777777777,-0.7083333333333335,438.8888888888889,46.291666666666664,466.6666666666667,44C494.44444444444446,41.708333333333336,505.5555555555556,-13.791666666666666,533.3333333333334,-14C561.1111111111111,-14.208333333333334,572.2222222222222,38.208333333333336,600,43C627.7777777777778,47.791666666666664,638.8888888888889,6.083333333333333,666.6666666666667,9C694.4444444444446,11.916666666666668,707.6388888888889,56.791666666666664,733.3333333333334,57C759.0277777777778,57.208333333333336,778.1944444444445,19.791666666666664,790,10" transform="matrix(1,0,0,1,0,400)"></path><path d="M10,10C21.805555555555557,10.833333333333334,40.97222222222223,19.625,66.66666666666667,14C92.36111111111111,8.375,105.55555555555557,-21.791666666666668,133.33333333333334,-17C161.11111111111111,-12.208333333333332,172.22222222222223,36.166666666666664,200,37C227.77777777777777,37.833333333333336,238.8888888888889,-12.166666666666666,266.6666666666667,-13C294.44444444444446,-13.833333333333334,305.5555555555556,30.916666666666668,333.33333333333337,33C361.11111111111114,35.083333333333336,372.22222222222223,-5.291666666666666,400,-3C427.77777777777777,-0.7083333333333335,438.8888888888889,46.291666666666664,466.6666666666667,44C494.44444444444446,41.708333333333336,505.5555555555556,-13.791666666666666,533.3333333333334,-14C561.1111111111111,-14.208333333333334,572.2222222222222,38.208333333333336,600,43C627.7777777777778,47.791666666666664,638.8888888888889,6.083333333333333,666.6666666666667,9C694.4444444444446,11.916666666666668,707.6388888888889,56.791666666666664,733.3333333333334,57C759.0277777777778,57.208333333333336,778.1944444444445,19.791666666666664,790,10" transform="matrix(1,0,0,1,0,320)"></path><path d="M10,10C21.805555555555557,10.833333333333334,40.97222222222223,19.625,66.66666666666667,14C92.36111111111111,8.375,105.55555555555557,-21.791666666666668,133.33333333333334,-17C161.11111111111111,-12.208333333333332,172.22222222222223,36.166666666666664,200,37C227.77777777777777,37.833333333333336,238.8888888888889,-12.166666666666666,266.6666666666667,-13C294.44444444444446,-13.833333333333334,305.5555555555556,30.916666666666668,333.33333333333337,33C361.11111111111114,35.083333333333336,372.22222222222223,-5.291666666666666,400,-3C427.77777777777777,-0.7083333333333335,438.8888888888889,46.291666666666664,466.6666666666667,44C494.44444444444446,41.708333333333336,505.5555555555556,-13.791666666666666,533.3333333333334,-14C561.1111111111111,-14.208333333333334,572.2222222222222,38.208333333333336,600,43C627.7777777777778,47.791666666666664,638.8888888888889,6.083333333333333,666.6666666666667,9C694.4444444444446,11.916666666666668,707.6388888888889,56.791666666666664,733.3333333333334,57C759.0277777777778,57.208333333333336,778.1944444444445,19.791666666666664,790,10" transform="matrix(1,0,0,1,0,240)"></path><path d="M10,10C21.805555555555557,10.833333333333334,40.97222222222223,19.625,66.66666666666667,14C92.36111111111111,8.375,105.55555555555557,-21.791666666666668,133.33333333333334,-17C161.11111111111111,-12.208333333333332,172.22222222222223,36.166666666666664,200,37C227.77777777777777,37.833333333333336,238.8888888888889,-12.166666666666666,266.6666666666667,-13C294.44444444444446,-13.833333333333334,305.5555555555556,30.916666666666668,333.33333333333337,33C361.11111111111114,35.083333333333336,372.22222222222223,-5.291666666666666,400,-3C427.77777777777777,-0.7083333333333335,438.8888888888889,46.291666666666664,466.6666666666667,44C494.44444444444446,41.708333333333336,505.5555555555556,-13.791666666666666,533.3333333333334,-14C561.1111111111111,-14.208333333333334,572.2222222222222,38.208333333333336,600,43C627.7777777777778,47.791666666666664,638.8888888888889,6.083333333333333,666.6666666666667,9C694.4444444444446,11.916666666666668,707.6388888888889,56.791666666666664,733.3333333333334,57C759.0277777777778,57.208333333333336,778.1944444444445,19.791666666666664,790,10" transform="matrix(1,0,0,1,0,160)"></path><path d="M10,10C21.805555555555557,10.833333333333334,40.97222222222223,19.625,66.66666666666667,14C92.36111111111111,8.375,105.55555555555557,-21.791666666666668,133.33333333333334,-17C161.11111111111111,-12.208333333333332,172.22222222222223,36.166666666666664,200,37C227.77777777777777,37.833333333333336,238.8888888888889,-12.166666666666666,266.6666666666667,-13C294.44444444444446,-13.833333333333334,305.5555555555556,30.916666666666668,333.33333333333337,33C361.11111111111114,35.083333333333336,372.22222222222223,-5.291666666666666,400,-3C427.77777777777777,-0.7083333333333335,438.8888888888889,46.291666666666664,466.6666666666667,44C494.44444444444446,41.708333333333336,505.5555555555556,-13.791666666666666,533.3333333333334,-14C561.1111111111111,-14.208333333333334,572.2222222222222,38.208333333333336,600,43C627.7777777777778,47.791666666666664,638.8888888888889,6.083333333333333,666.6666666666667,9C694.4444444444446,11.916666666666668,707.6388888888889,56.791666666666664,733.3333333333334,57C759.0277777777778,57.208333333333336,778.1944444444445,19.791666666666664,790,10" transform="matrix(1,0,0,1,0,80)"></path></g></svg>