<svg xmlns="http://www.w3.org/2000/svg" version="1.1" xmlns:xlink="http://www.w3.org/1999/xlink" xmlns:svgjs="http://svgjs.dev/svgjs" viewBox="0 0 800 800"><defs><linearGradient x1="50%" y1="0%" x2="50%" y2="100%" id="wwwhirl-grad"><stop stop-color="hsla(206, 78%, 33%, 1.00)" stop-opacity="1" offset="45%"></stop><stop stop-color="hsla(293, 90%, 56%, 1.00)" stop-opacity="1" offset="100%"></stop></linearGradient></defs><g stroke-width="1" stroke="url(#wwwhirl-grad)" fill="none" stroke-linecap="round"><path d="M37.00000251770027 448.0028638155346C50.75000289917 426.55286322044185 75.50000358581553 347.5178610277538 103.000004348755 345.04286095908924C130.50000511169446 342.5678608904247 141.5000054168703 437.360363520277 169.00000617980973 436.1228634859448C196.5000069427492 434.88536345161253 207.50000724792503 338.0716107656841 235.00000801086446 339.1028607942943C262.500008773804 340.1341108229046 273.5000090789798 440.45411360610774 301.0000098419193 441.07286362327386C328.50001060485874 441.69161364044004 339.5000109100345 340.0103608194713 367.000011672974 342.0728608766918C394.50001243591345 344.13536093391224 405.5000127410893 444.7853637262707 433.0000135040287 450.9728638979321C460.5000142669682 457.16036406959347 471.50001457214404 369.71036164344594 499.0000153350834 371.7728617006664C526.5000160980228 373.83536175788686 537.5000164031987 459.0166141210919 565.0000171661382 460.8728641725903C592.5000179290777 462.72911422408873 603.5000182342535 384.3953620508556 631.000018997193 380.6828619478588C658.5000197601325 376.970361844862 669.5000200653083 443.2591136839276 697.0000208282477 443.05286367820554C724.5000215911871 442.8466136724835 749.2500222778326 392.89286228660393 763.0000226593024 379.692861920393 " transform="rotate(99, 400, 400)"></path><path d="M48.00000244140632 446.54822741721233C61.33333614464971 425.74822684015265 85.3333368104878 349.1082247139097 112.00000421697456 346.7082246473259C138.6666716234613 344.3082245807421 149.33333858605602 436.2282271309019 176.00000599254278 435.02822709761006C202.66667339902952 433.8282270643181 213.33334036162427 339.9482244597815 240.000007768111 340.9482244875247C266.6666751745978 341.948224515268 277.3333421371925 439.2282272141317 304.00000954367925 439.82822723077766C330.66667695016605 440.4282272474236 341.3333439127607 341.8282245119388 368.00001131924745 343.8282245674253C394.66667872573424 345.8282246229118 405.33334568832896 443.4282273306534 432.00001309481576 449.4282274971129C458.66668050130244 455.42822766357244 469.3333474638972 370.6282253109445 496.0000148703839 372.628225366431C522.6666822768707 374.62822542191753 533.3333492394653 457.22822771351025 560.0000166459522 459.0282277634481C586.666684052439 460.828227813386 597.3333510150337 384.86822570600845 624.0000184215204 381.2682256061327C650.6666858280073 377.66822550625704 661.3333527906019 441.9482272895934 688.0000201970887 441.7482272840447C714.6666876035754 441.54822727849603 738.6666882694134 393.10822593461285 752.0000219726569 380.3082255794992 " transform="rotate(96, 400, 400)"></path><path d="M59.00000236511238 445.0935833894955C71.9166693901294 424.9435828304689 95.16667003516005 350.6985807706711 121.00000408519412 348.373580706168C146.83333813522813 346.04858064166496 157.1666717552418 435.0960831121323 183.0000058052758 433.9335830798808C208.83333985530987 432.77108304762925 219.1666734753235 341.82483052448436 245.00000752535757 342.79358055136066C270.8333415753916 343.7623305782369 281.1666751954052 438.00233319276117 307.0000092454393 438.5835832088869C332.83334329547336 439.16483322501267 343.16667691548696 343.64608057501175 369.00001096552097 345.5835806287643C394.83334501555504 347.52108068251687 405.1666786355687 442.07108330564154 431.0000126856027 447.88358346689915C456.8333467356368 453.6960836281568 467.16668035565044 371.54608134904856 493.0000144056845 373.4835814028011C518.8333484557185 375.4210814565537 529.1666820757321 455.43983367653414 555.0000161257661 457.18358372491144C580.8333501758003 458.92733377328875 591.1666837958139 385.34108173176674 617.000017845848 381.8535816350121C642.8333518958821 378.3660815382575 653.1666855158957 440.63733326586464 679.0000195659296 440.4435832604894C704.8333536159636 440.2498332551141 728.0833542609943 393.32358195322723 741.0000212860114 380.9235816092109 " transform="rotate(93, 400, 400)"></path><path d="M70.00000228881842 443.638973694054C82.50000263560909 424.1389731530606 105.00000325983231 352.28897115970784 130.00000395341365 350.0389710972855C155.00000464699497 347.78897103486315 165.00000492442751 433.9639734256381 190.00000561800886 432.8389733944269C215.0000063115902 431.71397336321576 225.00000658902275 343.70147092146266 250.00000728260406 344.63897094747193C275.00000797618543 345.57647097348126 285.000008253618 436.77647350366595 310.0000089471993 437.3389735192715C335.00000964078066 437.90147353487714 345.00000991821315 345.4639709703601 370.0000106117945 347.3389710223787C395.00001130537584 349.2139710743973 405.0000115828084 440.713973612905 430.0000122763897 446.33897376896084C455.000012969971 451.9639739250166 465.0000132474036 372.46397171942795 490.00001394098496 374.33897177144655C515.0000146345662 376.21397182346516 525.0000149119987 453.65147397183335 550.0000156055801 455.3389740186501C575.0000162991615 457.0264740654668 585.000016576594 385.8139720898004 610.0000172701755 382.4389719961669C635.0000179637568 379.06397190253347 645.0000182411893 439.32647357441124 670.0000189347705 439.1389735692094C695.0000196283519 438.95147356400753 717.5000202525752 393.538972304117 730.0000205993658 381.538971971198 " transform="rotate(90, 400, 400)"></path><path d="M81.00000221252448 442.184341110429C93.08333588108879 423.33434058746866 114.83333648450457 353.87933866056096 139.0000038216332 351.7043386002194C163.1666711587618 349.5293385398778 172.83333809361326 432.83184085096025 197.0000054307419 431.74434082078943C221.16667276787052 430.6568407906186 230.833339702722 345.5780884302573 255.00000703985063 346.4843384553996C279.16667437697924 347.39058848054196 288.83334131183074 435.55059092638714 313.00000864895935 436.0943409414726C337.16667598608797 436.63809095655796 346.8333429209394 347.28183847752484 371.000010258068 349.0943385278095C395.16667759519663 350.90683857809415 404.8333445300481 439.3568410319849 429.00001186717674 444.7943411828389C453.16667920430535 450.23184133369284 462.8333461391569 373.3818392016238 487.00001347628546 375.19433925190845C511.1666808134141 377.0068393021931 520.8333477482655 451.863091378949 545.0000150853941 453.4943414242052C569.1666824225229 455.12559146946137 578.8333493573742 386.2868395596505 603.000016694503 383.0243394691381C627.1666840316316 379.7618393786257 636.8333509664831 438.0155909947743 661.0000183036116 437.83434098974584C685.1666856407402 437.6530909847174 706.9166862441559 393.7543397668232 719.0000199127203 382.1543394450015 " transform="rotate(87, 400, 400)"></path><path d="M92.00000213623053 440.7296932680149C103.6666691265685 422.52969276308767 124.66666970917683 355.4696909026251 148.00000368985275 353.36969084436424C171.33333767052864 351.2696907861034 180.666671262799 431.6996930174933 204.00000524347493 430.6496929883629C227.33333922415085 429.59969295923247 236.66667281642125 347.4546906802629 260.00000679709717 348.3296907045383C283.33334077777306 349.2046907288136 292.66667437004344 434.32469309031933 316.0000083507193 434.8496931048845C339.3333423313953 435.3746931194498 348.66667592366565 349.0996907259006 372.00000990434154 350.84969077445123C395.3333438850174 352.59969082300194 404.6666774772878 437.9996931922758 428.00001145796375 443.24969333792785C451.3333454386397 448.49969348357996 460.6666790309101 374.2996914250306 484.000013011586 376.0496914735812C507.33334699226185 377.7996915221319 516.6666805845323 450.0746935272756 540.0000145652082 451.64969357097124C563.3333485458841 453.2246936146668 572.6666821381544 386.75969177071147 596.0000161188304 383.60969168332025C619.3333500995063 380.459691595929 628.6666836917767 436.7046931563483 652.0000176724526 436.52969315149323C675.3333516531285 436.35469314663817 696.3333522357368 393.9696919707403 708.0000192260748 382.7696916600159 " transform="rotate(84, 400, 400)"></path><path d="M103.00000205993659 439.2750568696926C114.25000237204819 421.72505638279847 134.5000029338491 357.060054588781 157.00000355807228 355.0350545326009C179.50000418229547 353.0100544764208 188.5000044319848 430.5675566281182 211.00000505620795 429.55505660002814C233.50000568043117 428.5425565719381 242.50000593012047 349.33130437436034 265.0000065543437 350.1750543977687C287.5000071785669 351.01880442117704 296.5000074282562 433.0988066983433 319.0000080524794 433.6050567123883C341.5000086767026 434.1113067264333 350.50000892639184 350.91755441836807 373.00000955061506 352.6050544651848C395.5000101748383 354.2925545120015 404.5000104245276 436.6425567966585 427.00001104875076 441.7050569371087C449.500011672974 446.7675570775589 458.5000119226633 375.2175550925291 481.00001254688647 376.90505513934585C503.50001317110963 378.5925551861626 512.5000134207988 448.28630711969396 535.0000140450221 449.80505716182904C557.5000146692455 451.3238072039641 566.5000149189347 387.2325554258643 589.0000155431579 384.1950553415942C611.5000161673811 381.157555257324 620.5000164170704 435.3938067620141 643.0000170412935 435.2250567573324C665.5000176655168 435.0563067526507 685.7500182273176 394.1850556187493 697.0000185394292 383.38505531912216 " transform="rotate(81, 400, 400)"></path><path d="M114.00000198364263 437.8204281007648C124.83333561752788 420.9204276319038 144.33333615852135 358.6504259043314 166.0000034262918 356.7004258502321C187.6666706940623 354.75042579613273 196.3333376011705 429.4354278681376 218.000004868941 428.46042784108795C239.6666721367115 427.4854278140383 248.3333390438197 351.20792569785226 270.0000063115902 352.02042572039363C291.6666735793607 352.83292574293506 300.33334048646896 431.8729279357618 322.0000077542394 432.36042794928665C343.6666750220099 432.84792796281147 352.3333419291181 352.7354257402301 374.0000091968886 354.3604257853128C395.6666764646591 355.9854258303956 404.3333433717673 435.28542803043564 426.0000106395378 440.16042816568404C447.66667790730827 445.0354283009324 456.3333448144165 376.1354263894222 478.00001208218697 377.760426434505C499.66667934995746 379.38542647958775 508.33334625706556 446.49792834150685 530.0000135248362 447.9604283820814C551.6666807926067 449.4229284226559 560.3333476997147 387.70542671041164 582.0000149674854 384.78042662926265C603.6666822352558 381.8554265481136 612.3333491423641 434.0829279970744 634.0000164101345 433.9204279925661C655.666683677905 433.7579279880578 675.1666842188985 394.40042689615274 686.0000178527837 384.0004266076229 " transform="rotate(78, 400, 400)"></path><path d="M125.00000190734869 436.365799331837C135.41666886300757 420.11579888100914 154.1666693831936 360.24079721988187 175.00000329451137 358.36579716786326C195.83333720582914 356.49079711584466 204.16667077035626 428.30329910815703 225.00000468167406 427.36579908214776C245.83333859299182 426.4282990561384 254.16667215751897 353.0845470213442 275.00000606883674 353.8657970430186C295.8333399801545 354.647047064693 304.16667354468166 430.6470491731803 325.0000074559994 431.1157991861849C345.8333413673172 431.5845491991896 354.16667493184434 354.5532970620921 375.00000884316205 356.11579710544095C395.8333427544799 357.67829714878974 404.166676319007 433.92829926421285 425.0000102303248 438.61579939425934C445.83334414164256 443.3032995243058 454.1666777061697 377.0532976863153 475.0000116174875 378.6157977296641C495.83334552880524 380.17829777301296 504.1666790933323 444.7095495633198 525.0000130046501 446.1157996023337C545.8333469159679 447.5220496413477 554.166680480495 388.178297994959 575.0000143918128 385.3657979169311C595.8333483031306 382.5532978389032 604.1666818676579 432.7720492321347 625.0000157789755 432.6157992277998C645.8333496902933 432.45954922346493 664.5833502104794 394.6157981735562 675.0000171661382 384.61579789612364 " transform="rotate(75, 400, 400)"></path><path d="M136.00000183105476 434.91117056290926C146.00000210848728 419.3111701301145 164.00000260786584 361.83116853543225 184.00000316273093 360.0311684854944C204.00000371759597 358.2311684355566 212.000003939542 427.1711703481765 232.00000449440708 426.2711703232075C252.00000504927215 425.3711702982386 260.0000052712182 354.9611683448361 280.0000058260833 355.7111683656436C300.0000063809483 356.461168386451 308.00000660289436 429.4211704105988 328.00000715775946 429.87117042308324C348.00000771262455 430.3211704355677 356.00000793457053 356.3711683839541 376.0000084894356 357.871168425569C396.00000904430067 359.37116846718385 404.0000092662467 432.57117049799 424.0000098211118 437.07117062283464C444.0000103759769 441.57117074767933 452.0000105979229 377.9711689832084 472.000011152788 379.47116902482327C492.000011707653 380.97116906643816 500.00001192959905 442.92117078513274 520.0000124844642 444.2711708225861C540.0000130393292 445.62117086003946 548.0000132612753 388.65116927950635 568.0000138161404 385.9511692045995C588.0000143710055 383.25116912969276 596.0000145929514 431.461170467195 616.0000151478165 431.31117046303353C636.0000157026815 431.16117045887205 654.00001620206 394.83116945095964 664.0000164794926 385.2311691846244 " transform="rotate(72, 400, 400)"></path><path d="M146.9999864959717 433.45654560867877C156.5833200951779 418.5065451939171 173.83332057374906 363.42154366567996 192.9999877721614 361.69654361782284C212.16665497057375 359.9715435699658 219.8333218499387 426.0390454028932 238.99998904835104 425.1765453789646C258.1666562467634 424.31404535503606 265.8333231261284 356.83779348302534 284.9999903245407 357.5565435029658C304.1666575229531 358.2752935229063 311.83332440231806 428.19529546271457 330.9999916007304 428.62654547467884C350.1666587991428 429.0577954866431 357.83332567850766 358.1890435205134 376.99999287692003 359.62654356039434C396.1666600753324 361.0640436002752 403.8333269546974 431.2140455464645 422.99999415310975 435.52654566610727C442.1666613515221 439.83904578575005 449.83332823088705 378.88904409479875 468.9999954292994 380.3265441346797C488.16666262771173 381.7640441745606 495.83332950707666 441.1327958216429 514.9999967054891 442.42654585753576C534.1666639039015 443.72029589342856 541.8333307832664 389.12404437875097 560.9999979816788 386.53654430696525C580.1666651800912 383.9490442351796 587.8333320594561 430.1502955169526 606.9999992578685 430.0065455129645C626.1666664562807 429.86279550897643 643.4166669348518 395.04654454306035 653.000000534058 385.84654428782244 " transform="rotate(69, 400, 400)"></path><path d="M157.99998641967778 432.0018977662646C167.1666533406576 417.7018973695361 183.6666537984213 365.0118959077441 201.99998764038094 363.3618958619677C220.33332148234058 361.7118958161913 227.66665501912445 424.90689756942623 245.9999888610841 424.0818975465381C264.33332270304373 423.25689752364985 271.6666562398276 358.7143957330309 289.99999008178725 359.4018957521044C308.3333239237469 360.0893957711779 315.6666574605308 426.9693976266467 333.99999130249046 427.3818976380908C352.3333251444501 427.79439764953486 359.6666586812339 360.0068957688891 377.99999252319355 361.3818958070361C396.3333263651532 362.75689584518307 403.6666599019371 429.8568977067554 421.99999374389677 433.9818978211963C440.3333275858564 438.10689793563716 447.6666611226403 379.80689631820553 465.9999949645999 381.18189635635247C484.3333288065595 382.55689639449946 491.6666623433434 439.34439796996946 509.9999961853031 440.5818980043017C528.3333300272627 441.819398038634 535.6666635640465 389.59689658981193 553.9999974060063 387.1218965211474C572.3333312479659 384.64689645248285 579.6666647847499 428.8393976785266 597.9999986267094 428.70189767471186C616.3333324686689 428.56439767089716 632.8333329264326 395.26189674697747 641.9999998474125 386.46189650283685 " transform="rotate(66, 400, 400)"></path><path d="M168.99998634338385 430.54726899733686C177.7499865861373 416.8972686186414 193.49998702309355 366.6022672232945 210.9999875086005 365.0272671795989C228.4999879941074 363.45226713590324 235.49998818831023 423.7747688094457 252.99998867381714 422.9872687875978C270.49998915932406 422.19976876575004 277.49998935352687 360.59101705652284 294.9999898390338 361.2472670747294C312.4999903245407 361.9035170929359 319.4999905187435 425.7435188640652 336.99999100425043 426.1372688749891C354.49999148975735 426.531018885913 361.49999168396016 361.8247670907511 378.9999921694671 363.13726712716414C396.49999265497405 364.4497671635771 403.4999928491768 428.49976894053253 420.9999933346837 432.4372690497716C438.4999938201907 436.37476915901067 445.4999940143935 380.7247676150986 462.9999944999004 382.0372676515116C480.4999949854073 383.34976768792467 487.4999951796101 437.5560191917824 504.99999566511707 438.7372692245541C522.4999961506239 439.9185192573258 529.4999963448267 390.0697678743593 546.9999968303338 387.70726780881586C564.4999973158407 385.3447677432724 571.4999975100434 427.52851891358694 588.9999979955503 427.3972689099456C606.4999984810572 427.2660189063043 622.2499989180135 395.4772680243809 630.999999160767 387.0772677913376 " transform="rotate(63, 400, 400)"></path><path d="M179.9999862670899 429.0926402284091C188.33331983161702 416.0926398677468 203.3333202477658 368.1926385388449 219.99998737682003 366.69263849723006C236.66665450587425 365.19263845561517 243.33332135749595 422.64264004946506 259.9999884865502 421.89264002865764C276.6666556156044 421.1426400078502 283.33332246722614 362.4676383800148 299.99998959628033 363.09263839735434C316.6666567253345 363.71763841469385 323.3333235769563 424.51764010148366 339.9999907060105 424.89264011188743C356.6666578350647 425.26764012229114 363.3333246866864 363.6426384126131 379.9999918157406 364.8926384472922C396.6666589447948 366.1426384819713 403.33332579641655 427.14264017430975 419.9999929254708 430.8926402783469C436.666660054525 434.6426403823841 443.3333269061467 381.6426389119917 459.9999940352009 382.8926389466708C476.6666611642551 384.1426389813498 483.33332801587676 435.7676404135953 499.99999514493106 436.89264044480643C516.6666622739854 438.0176404760176 523.333329125607 390.54263915890664 539.9999962546613 388.2926390964843C556.6666633837156 386.042639034062 563.3333302353371 426.2176401486472 579.9999973643913 426.0926401451793C596.6666644934455 425.9676401417114 611.6666649095944 395.6926393017844 619.9999984741214 387.6926390798384 " transform="rotate(60, 400, 400)"></path><path d="M190.99998619079594 427.638007644784C198.9166530770967 415.2880073021549 213.16665347243807 369.7830060396981 228.99998724503956 368.358006000164C244.83332101764108 366.9330059606298 251.1666545266817 421.51050747478723 266.99998829928325 420.7980074550202C282.8333220718847 420.08550743525313 289.16665558092535 364.34425588880947 304.99998935352687 364.938005905282C320.83332312612833 365.5317559217546 327.166656635169 423.2917575242049 342.9999904077705 423.64800753408844C358.833324180372 424.00425754397196 365.1666576894126 365.46050591977786 380.9999914620141 366.648005952723C396.8333252346156 367.8355059856681 403.1666587436563 425.78550759338964 418.99999251625775 429.348007692225C434.83332628885927 432.91050779106035 441.1666597978999 382.56050639418754 456.99999357050143 383.7480064271326C472.8333273431029 384.93550646007776 479.1666608521435 433.9792578207109 494.99999462474506 435.0480078503615C510.8333283973466 436.11675788001213 517.1666619063872 391.0155066287567 532.9999956789886 388.8780065694555C548.8333294515903 386.7405065101543 555.1666629606309 424.90675756901027 570.9999967332324 424.78800756571576C586.8333305058338 424.66925756242125 601.0833309011753 395.9080067644906 608.9999977874759 388.30800655364186 " transform="rotate(57, 400, 400)"></path><path d="M201.999986114502 426.1833712464617C209.49998632257638 414.4833709218656 222.99998669711033 371.373369725854 237.99998711325912 370.0233696884006C252.99998752940792 368.6733696509472 258.99998769586745 420.37837108541214 273.99998811201624 419.7033710666854C288.9999885281651 419.02837104795873 294.99998869462456 366.22086958290686 309.9999891107734 366.7833695985125C324.9999895269222 367.34586961411804 330.99998969338174 422.06587113222884 345.99999010953053 422.40337114159223C360.9999905256793 422.74087115095557 366.9999906921388 367.27836961224534 381.99999110828765 368.40336964345653C396.99999152443644 369.5283696746677 402.99999169089597 424.4283711977723 417.99999210704476 427.80337129140577C432.99999252319355 431.17837138503927 438.99999268965314 383.47837006168606 453.99999310580193 384.60337009289725C468.9999935219507 385.7283701241084 474.9999936884102 432.1908714131293 489.99999410455905 433.20337144121936C504.9999945207079 434.2158714693094 510.9999946871674 391.48837028390955 525.9999951033162 389.46337022772946C540.9999955194651 387.43837017154937 546.9999956859245 423.59587117467606 561.9999961020733 423.48337117155495C576.9999965182221 423.37087116843384 590.499996892756 396.1233704124995 597.9999971008303 388.92337021274807 " transform="rotate(54, 400, 400)"></path><path d="M212.99998603820805 424.7287443848826C220.08331956805608 413.6787440783196 232.8333199217826 372.96374294875307 246.99998698147868 371.6887429133804C261.16665404117475 370.4137428780078 266.8333208650532 419.24624423278016 280.9999879247493 418.60874421509385C295.16665498444536 417.97124419740754 300.83332180832383 368.09749281374746 314.99998886801995 368.62874282848605C329.166655927716 369.15999284322464 334.83332275159444 420.839994276996 348.99998981129056 421.15874428583913C363.1666568709866 421.4774942946823 368.83332369486504 369.09624284145605 382.99999075456117 370.1587428709332C397.16665781425723 371.22124290041046 402.8333246381357 423.0712443388981 416.9999916978318 426.25874442732976C431.1666587575279 429.44624451576135 436.8333255814063 384.3962432659278 450.99999264110244 385.458743295405C465.1666597007985 386.5212433248822 470.8333265246769 430.40249454229087 484.99999358437304 431.3587445688203C499.16666064406917 432.31499459534984 504.8333274679476 391.96124347580553 518.9999945276437 390.04874342274655C533.1666615873398 388.1362433696876 538.8333284112182 422.284994317085 552.9999954709143 422.17874431413725C567.1666625306103 422.07249431118953 579.9166628843368 396.3387435972516 586.9999964141849 389.5387434085975 " transform="rotate(51, 400, 400)"></path><path d="M223.9999859619141 423.27410989390887C230.6666528135358 412.8741096053791 242.66665314645485 374.5541085422576 255.99998684969822 373.3541085089657C269.3333205529416 372.15410847567375 274.66665403423895 418.1141097507537 287.99998773748234 417.51410973410776C301.3333214407257 416.9141097174618 306.6666549220231 369.9741084151935 319.99998862526644 370.4741084290651C333.33332232850984 370.9741084429367 338.6666558098072 419.6141097923686 351.99998951305054 419.91410980069156C365.33332321629393 420.21410980901453 370.6666566975913 370.91410844127216 383.9999904008347 371.9141084690154C397.3333241040781 372.9141084967587 402.66665758537545 421.7141098506294 415.99999128861884 424.71410993385916C429.3333249918621 427.71411001708896 434.66665847315954 385.314108840775 447.9999921764029 386.31410886851825C461.3333258796463 387.3141088962615 466.6666593609436 428.61411004205786 479.99999306418704 429.5141100670268C493.33332676743044 430.4141100919957 498.6666602487278 392.43410903830693 511.99999395197113 390.6341089883691C525.3333276552146 388.83410893843126 530.666661136512 420.97410983009945 543.9999948397553 420.87410982732507C557.3333285429986 420.77410982455075 569.3333288759177 396.55410915260916 575.9999957275394 390.15410897505234 " transform="rotate(48, 400, 400)"></path><path d="M234.99998588562016 421.8194792176325C241.2499860590155 412.06947894713574 252.49998637112708 376.14447795045936 264.99998671791775 375.01947791924823C277.4999870647084 373.89447788803704 282.49998720342467 416.9819790834245 294.99998755021534 416.41947906781894C307.499987897006 415.8569790522133 312.4999880357223 371.85072783133677 324.999988382513 372.31947784434146C337.49998872930365 372.7882278573461 342.49998886801995 418.3882291224385 354.9999892148106 418.66947913024126C367.4999895616013 418.95072913804404 372.49998970031754 372.73197785578554 384.9999900471082 373.6694778817948C397.4999903938989 374.60697790780415 402.49999053261513 420.35697917705795 414.9999908794058 423.1694792550859C427.49999122619647 425.98197933311377 432.4999913649127 386.23197823031944 444.9999917117034 387.1694782563288C457.49999205849406 388.10697828233805 462.4999921972103 426.8257293565222 474.999992544001 427.6694793799305C487.4999928907917 428.51322940333887 492.49999302950795 392.90697841550565 504.9999933762987 391.2194783686889C517.4999937230893 389.5319783218722 522.4999938618056 419.6632291578111 534.9999942085963 419.56947915521016C547.4999945553868 419.47572915260923 558.7499948674986 396.769478522664 564.9999950408939 390.76947835620444 " transform="rotate(45, 400, 400)"></path><path d="M245.9999858093262 420.36484663400745C251.83331930449518 411.26484638154386 262.33331959579937 377.73484545131254 273.9999865861373 376.68484542218215C285.66665357647526 375.6348453930517 290.33332037261044 415.8498465087466 301.9999873629484 415.32484649418143C313.6666543532864 414.79984647961624 318.3333211494216 373.7273453401315 329.9999881397595 374.16484535226914C341.66665513009747 374.6023453644068 346.33332192623266 417.16234654515966 357.9999889165706 417.42484655244226C369.66665590690855 417.6873465597249 374.3333227030438 374.5498453629503 385.99998969338174 375.4248453872256C397.6666566837197 376.299845411501 402.3333234798548 418.9998465961379 413.9999904701928 421.6248466689639C425.6666574605308 424.24984674178995 430.33332425666595 387.1498457125153 441.99999124700395 388.0248457367906C453.66665823734184 388.899845761066 458.3333250334771 425.0373467636378 469.999992023815 425.8248467854856C481.66665901415297 426.61234680733344 486.33332581028816 393.37984588535573 497.99999280062616 391.80484584166015C509.6666597909641 390.2298457979645 514.3333265870992 418.35234657817415 525.9999935774372 418.2648465757466C537.6666605677751 418.1773465733191 548.1666608590793 396.98484598537016 553.9999943542483 391.384845830008 " transform="rotate(42, 400, 400)"></path><path d="M256.99998573303225 418.9102235871256C262.41665254997486 410.46022335269504 272.1666528204716 379.3252224889089 282.9999864543569 378.3502224618592C293.8333200882421 377.37522243480953 298.1666535417962 414.71772347081196 308.99998717568144 414.23022345728714C319.83332080956666 413.7427234437623 324.1666542631208 375.6039723856693 334.999987897006 376.01022239694C345.8333215308913 376.41647240821067 350.1666549844454 415.9364735046241 360.99998861833063 416.1802235113865C371.8333222522159 416.4239735181489 376.16665570577 376.3677224068582 386.99998933965526 377.1802224293996C397.8333229735405 377.992722451941 402.1666564270946 417.642723551961 412.9999900609798 420.0802236195852C423.83332369486504 422.51772368720935 428.1666571484192 388.0677227314543 438.9999907823044 388.88022275399567C449.83332441618967 389.69272277653704 454.16665786974374 423.2489737074966 464.999991503629 423.9802237277839C475.8333251375143 424.7114737480711 480.1666585910683 393.852722891949 490.99999222495364 392.39022285137446C501.83332585883886 390.9277228108 506.166659312393 417.0414735352804 516.9999929462782 416.96022353302624C527.8333265801634 416.8789735307721 537.5833268506601 397.2002229848195 542.9999936676028 392.0002228405546 " transform="rotate(39, 400, 400)"></path><path d="M267.9999856567383 417.45557574471144C272.99998579545456 409.6555755283141 281.9999860451438 380.915574730973 291.99998632257643 380.01557470600403C301.9999866000089 379.1155746810351 305.99998671098194 413.5855756373451 315.9999869884145 413.1355756248606C325.99998726584704 412.68557561237617 329.99998737682006 377.4805746356749 339.99998765425255 377.8555746460786C349.9999879316851 378.23057465648236 353.9999880426581 414.7105756685562 363.99998832009067 414.93557567479843C373.9999885975232 415.1605756810407 377.9999887084962 378.1855746552339 387.9999889859287 378.9355746760413C397.9999892633613 379.6855746968488 401.9999893743343 416.28557571225184 411.99998965176684 418.53557577467416C421.9999899291994 420.7855758370965 425.9999900401724 388.985574954861 435.9999903176049 389.73557497566844C445.99999059503745 390.4855749964759 449.99999070601046 421.4605758558232 459.999990983443 422.1355758745499C469.99999126087556 422.81057589327656 473.9999913718486 394.32557510301 483.9999916492811 392.9755750655566C493.9999919267137 391.62557502810324 497.99999203768664 415.7305756968544 507.9999923151192 415.6555756947736C517.9999925925517 415.58057569269283 526.999992842241 397.4155751887366 531.9999929809572 392.615575055569 " transform="rotate(36, 400, 400)"></path><path d="M279.0000008392334 416.0009584198755C283.58333429972333 408.85095822151123 291.8333345286052 382.5059574906152 301.000001449585 381.680957467727C310.1666683705648 380.85595744483885 313.8333351389567 412.4534583214563 323.0000020599366 412.0409583100122C332.16666898091637 411.6284582985681 335.83333574930833 379.3572074032586 345.00000267028815 379.7009574127954C354.166669591268 380.0447074223321 357.83333635965994 413.4847083500665 367.00000328063976 413.69095835578855C376.1666702016196 413.8972083615106 379.8333369700115 380.0034574211877 389.0000038909913 380.6909574402612C398.16667081197113 381.3784574593347 401.8333375803631 414.92845839012085 411.0000045013429 416.9909584473413C420.16667142232274 419.0534585045618 423.8333381907147 389.90345769584593 433.00000511169446 390.5909577149194C442.1666720326743 391.27845773399287 445.83333880106625 419.6722085217279 455.00000572204607 420.290958538894C464.1666726430259 420.9097085560602 467.8333394114178 394.79845783164916 477.0000063323977 393.56095779731686C486.1666732533775 392.3234577629846 489.83334002176946 414.41970837600644 499.0000069427492 414.3509583740991C508.166673863729 414.28220837219175 516.4166740926108 397.6309579102319 521.0000075531008 393.2309577881616 " transform="rotate(33, 400, 400)"></path><path d="M290.00000076293946 414.54632011420455C294.16666754520304 408.0463199338734 301.66666775327747 384.09631926942245 310.00000131780456 383.34631924861503C318.33333488233166 382.5963192278076 321.6666683081425 411.32132002473253 330.0000018726696 410.9463200143288C338.33333543719675 410.5713200039251 341.6666688630076 381.2338191900074 350.0000024275347 381.54631919867717C358.3333359920618 381.8588192073469 361.66666941787264 412.25882005074186 370.0000029823998 412.4463200559437C378.3333365469269 412.63382006114557 381.66666997273774 381.82131920630655 390.00000353726483 382.4463192236461C398.3333371017919 383.07131924098564 401.66667052760283 413.57132008715485 410.0000040921299 415.44632013917345C418.333337656657 417.32132019119206 421.6666710824679 390.8213194559959 430.00000464699497 391.4463194733354C438.3333382115221 392.0713194906749 441.6666716373329 417.8838202067976 450.00000520186006 418.44632022240324C458.3333387663872 419.0088202380088 461.666672192198 395.27131957945335 470.00000575672516 394.14631954824216C478.3333393212523 393.021319517031 481.6666727470631 413.1088200743236 490.0000063115902 413.04632007258965C498.3333398761173 412.9838200708557 505.8333400841917 397.8463196508922 510.00000686645524 393.8463195399192 " transform="rotate(30, 400, 400)"></path><path d="M301.00000068664554 413.09168562323083C304.75000079068275 407.24168546093284 311.5000009779497 385.686684862927 319.00000118602406 385.0116848442003C326.5000013940985 384.3366848254736 329.5000014773283 410.18918554270607 337.00000168540265 409.85168553334273C344.5000018934771 409.5141855239794 347.5000019767068 383.11043479145343 355.00000218478124 383.3916847992562C362.50000239285566 383.672934807059 365.5000024760854 411.0329355661144 373.00000268415977 411.2016855707961C380.5000028922342 411.37043557547776 383.50000297546393 383.63918480612267 391.00000318353835 384.20168482172824C398.5000033916127 384.76418483733386 401.5000034748425 412.21418559888616 409.00000368291694 413.9016856457029C416.5000038909913 415.5891856925196 419.5000039742211 391.73918503084303 427.00000418229547 392.3016850464486C434.5000043903699 392.8641850620542 437.50000447359963 416.0954357065647 445.00000468167406 416.6016857206097C452.5000048897485 417.1079357346547 455.5000049729782 395.74418514195474 463.00000518105264 394.7316851138647C470.50000538912707 393.71918508577465 473.5000054723568 411.79793558733803 481.0000056804312 411.7416855857775C488.5000058885056 411.6854355842169 495.25000607577255 398.06168520624976 499.0000061798097 394.46168510637403 " transform="rotate(27, 400, 400)"></path><path d="M312.00000061035155 411.63705590062875C315.33333403616246 406.43705575636386 321.3333342026219 387.2770552248031 328.0000010542436 386.6770552081572C334.6666679058653 386.0770551915112 337.333334646514 409.0570558290512 344.0000014981357 408.75705582072817C350.6666683497574 408.4570558124052 353.3333350904061 384.9870551612711 360.0000019420278 385.2370551682069C366.6666687936495 385.4870551751427 369.33333553429816 409.8070558498586 376.0000023859198 409.9570558540201C382.6666692375415 410.1070558581816 385.3333359781902 385.45705517431037 392.0000028298119 385.95705518818204C398.6666696814336 386.45705520205365 401.33333642208225 410.857055878989 408.00000327370395 412.3570559206039C414.6666701253256 413.8570559622188 417.3333368659743 392.6570553740618 424.000003717596 393.15705538793344C430.6666705692177 393.65705540180505 433.33333730986635 414.30705597470325 440.00000416148805 414.7570559871877C446.66667101310975 415.2070559996722 449.3333377537584 396.2170554728278 456.0000046053801 395.3170554478589C462.6666714570018 394.4170554228899 465.3333381976505 410.48705586872404 472.0000050492722 410.4370558673369C478.66667190089385 410.3870558659497 484.6666720673534 398.2770555299789 488.0000054931642 395.0770554412005 " transform="rotate(24, 400, 400)"></path><path d="M323.0000005340576 410.18242427067804C325.9166672816421 405.63242414444625 331.1666674272942 388.8674236793306 337.0000009224632 388.34242366476536C342.83333441763216 387.81742365020017 345.1666678156997 407.9249242080476 351.0000013108687 407.66242420076503C356.8333348060377 407.39992419348243 359.16666820410535 386.86367362374006 365.0000016992743 387.0824236298089C370.8333351944433 387.3011736358777 373.16666859251086 408.5811742262542 379.00000208767983 408.7124242298955C384.8333355828488 408.8436742335368 387.1666689809164 387.27492363514943 393.0000024760854 387.71242364728715C398.83333597125437 388.1499236594248 401.16666936932194 409.49992425174327 407.00000286449097 410.8124242881563C412.83333635965994 412.1249243245693 415.1666697577275 393.57492380993193 421.0000032528965 394.01242382206965C426.83333674806545 394.4499238342073 429.1666701461331 412.5186743354932 435.00000364130204 412.91242434641714C440.833337136471 413.30617435734104 443.16667053453864 396.6899238963522 449.0000040297076 395.9024238745044C454.8333375248766 395.11492385265655 457.16667092294415 409.17617424276136 463.0000044181131 409.1324242415476C468.8333379132821 409.08867424033383 474.0833380589342 398.4924239463594 477.0000048065187 395.6924238686783 " transform="rotate(21, 400, 400)"></path><path d="M334.0000004577637 408.727791687053C336.5000005271218 404.8277915788543 341.00000065196645 390.45779118018373 346.00000079068275 390.0077911676993C351.000000929399 389.55779115521483 353.0000009848855 406.7927916333698 358.0000011236018 406.5677916271276C363.00000126231805 406.34279162088535 365.00000131780456 388.7402911325347 370.0000014565208 388.92779113773656C375.0000015952371 389.1152911429384 377.00000165072356 407.35529164897537 382.00000178943986 407.4677916520965C387.00000192815617 407.5802916552176 389.0000019836426 389.09279114231424 394.00000212235886 389.46779115271795C399.00000226107517 389.84279116312166 401.0000023165617 408.1427916708232 406.0000024552779 409.26779170203434C411.0000025939942 410.39279173324553 413.00000264948073 394.4927912921278 418.000002788197 394.8677913025315C423.0000029269132 395.2427913129352 425.0000029823998 410.73029174260887 430.00000312111604 411.0677917519722C435.0000032598323 411.40529176133555 437.00000331531885 397.16279136620227 442.0000034540351 396.4877913474756C447.00000359275134 395.81279132874886 449.00000364823785 407.8652916631244 454.00000378695415 407.82779166208405C459.0000039256704 407.7902916610437 463.50000405051503 398.7077914090656 466.00000411987315 396.3077913424818 " transform="rotate(18, 400, 400)"></path><path d="M344.99999656677244 407.27315910342793C347.08332995790425 404.0231590132624 350.83333006194147 392.0481586810369 354.99999684420504 391.6731586706332C359.16666362646856 391.2981586602295 360.833330339374 405.660659058692 364.99999712163753 405.4731590534901C369.1666639039011 405.28565904828827 370.8333306168065 390.61690864132936 374.9999973990701 390.77315864566424C379.16666418133366 390.9294086499992 380.83333089423905 406.1294090716966 384.99999767650263 406.22315907429754C389.16666445876615 406.31690907689847 390.8333311716716 390.910658649479 394.9999979539351 391.22315865814875C399.1666647361987 391.5356586668185 400.83333144910415 406.7856590899031 404.9999982313677 407.7231591159124C409.16666501363125 408.6606591419217 410.8333317265367 395.4106587743236 414.9999985088002 395.7231587829934C419.1666652910638 396.03565879166314 420.8333320039692 408.9419091497245 424.99999878623277 409.2231591575273C429.16666556849634 409.5044091653301 430.83333228140174 397.63565883605236 434.9999990636653 397.0731588204468C439.1666658459289 396.51065880484117 440.8333325588343 406.5544090834875 444.9999993410978 406.5231590826205C449.1666661233614 406.49190908175353 452.9166662273986 398.92315887177176 454.99999961853035 396.9231588162853 " transform="rotate(15, 400, 400)"></path><path d="M355.9999964904785 405.81852842715153C357.66666320338396 403.2185283550191 360.6666632866137 393.6385280892387 363.99999671242455 393.33852808091575C367.3333301382354 393.0385280725928 368.66666350855974 404.5285283913627 371.9999969343706 404.37852838720124C375.33333036018144 404.22852838303976 376.6666637305058 392.4935280574727 379.9999971563166 392.6185280609406C383.3333305821275 392.7435280644085 384.6666639524518 404.9035284017665 387.9999973782626 404.97852840384724C391.3333308040735 405.053528405928 392.66666417439785 392.72852806399237 395.99999760020864 392.9785280709282C399.33333102601955 393.228528077864 400.6666643963439 405.4285284163317 403.9999978221547 406.1785284371391C407.33333124796553 406.9285284579465 408.6666646182899 396.32852816386804 411.9999980441007 396.5785281708039C415.33333146991157 396.8285281777397 416.6666648402359 407.15352846418875 419.99999826604676 407.37852847043104C423.3333316918576 407.60352847667326 424.66666506218195 398.1085282132511 427.9999984879928 397.65852820076657C431.33333191380365 397.2085281882821 432.666665284128 405.2435284111992 435.99999870993884 405.2185284105056C439.33333213574963 405.193528409812 442.3333322189794 399.13852824182663 443.9999989318849 397.5385281974374 " transform="rotate(12, 400, 400)"></path><path d="M366.9999964141846 404.3638958435265C368.2499964488636 402.41389578942716 370.499996511286 395.2288955900919 372.9999965806441 395.0038955838496C375.49999665000223 394.7788955776074 376.49999667774546 403.3963958166849 378.99999674710364 403.2838958135638C381.49999681646176 403.1713958104427 382.49999684420504 394.37014556626735 384.9999969135631 394.4638955688683C387.4999969829213 394.5576455714692 388.4999970106645 403.6776458244877 390.9999970800227 403.73389582604824C393.4999971493808 403.7901458276088 394.49999717712404 394.5463955711571 396.99999724648217 394.733895576359C399.49999731584035 394.92139558156083 400.4999973435836 404.0713958354116 402.9999974129417 404.6338958510172C405.4999974822998 405.19639586662277 406.4999975100431 397.2463956460639 408.9999975794012 397.43389565126574C411.49999764875935 397.6213956564676 412.49999767650263 405.36514587130443 414.99999774586075 405.5338958759861C417.4999978152189 405.7026458806678 418.49999784296216 398.58139568310116 420.9999979123203 398.24389567373777C423.4999979816784 397.90639566437443 424.4999980094217 403.93264583156224 426.9999980787798 403.91389583104205C429.49999814813793 403.89514583052187 431.74999821056025 399.3538957045328 432.99999824523934 398.1538956712409 " transform="rotate(9, 400, 400)"></path><path d="M378.0000001525879 402.9092632599014C378.8333335090406 401.6092632238352 380.3333335506555 396.819263090945 382.0000002635609 396.66926308678353C383.66666697646633 396.51926308262205 384.3333336616285 402.2642632420071 386.0000003745339 402.18926323992633C387.66666708743935 402.1142632378456 388.3333337726015 396.246763075062 390.0000004855069 396.30926307679596C391.66666719841237 396.3717630785299 392.33333388357454 402.45176324720893 394.00000059647994 402.4892632482493C395.6666673093854 402.5267632492897 396.33333399454756 396.36426307832187 398.00000070745295 396.4892630817898C399.6666674203584 396.6142630852577 400.3333341055206 402.7142632544915 402.000000818426 403.08926326489524C403.6666675313314 403.46426327529895 404.33333421649354 398.16426312825973 406.000000929399 398.28926313172764C407.66666764230445 398.41426313519554 408.33333432746656 403.57676327842006 410.000001040372 403.6892632815412C411.66666775327747 403.8017632846623 412.3333344384396 399.0542631529512 414.00000115134503 398.82926314670897C415.6666678642505 398.60426314046674 416.3333345494126 402.62176325192524 418.00000126231805 402.60926325157845C419.66666797522345 402.59676325123166 421.16666801683834 399.569263167239 422.00000137329107 398.76926314504436 " transform="rotate(6, 400, 400)"></path><path d="M389.00000007629393 401.454632583625C389.4166667545203 400.80463256559193 390.1666667753277 398.4096324991468 391.00000013178044 398.3346324970661C391.83333348823317 398.25963249498534 392.1666668308143 401.1321325746778 393.00000018726695 401.09463257363745C393.8333335437197 401.0571325725971 394.16666688630073 398.12338249120535 395.00000024275346 398.1546324920723C395.8333335992062 398.1858824929393 396.1666669417873 401.22588257727875 397.00000029823997 401.24463257779894C397.8333336546927 401.2633825783191 398.16666699727375 398.18213249283525 399.0000003537265 398.2446324945692C399.8333337101792 398.30713249630315 400.16666705276026 401.35713258092005 401.000000409213 401.5446325861219C401.8333337656657 401.7321325913238 402.16666710824677 399.08213251780415 403.0000004646995 399.1446325195381C403.8333338211522 399.20713252127206 404.1666671637333 401.7883825928844 405.000000520186 401.84463259444493C405.83333387663873 401.9008825960055 406.1666672192198 399.5271325301499 407.0000005756725 399.4146325270288C407.83333393212524 399.3021325239077 408.1666672747063 401.31088257963694 409.000000631159 401.30463257946354C409.8333339876117 401.29838257929015 410.5833340084192 399.7846325372938 411.00000068664554 399.3846325261965 " transform="rotate(3, 400, 400)"></path></g></svg>