<svg xmlns="http://www.w3.org/2000/svg" version="1.1" xmlns:xlink="http://www.w3.org/1999/xlink" xmlns:svgjs="http://svgjs.dev/svgjs" viewBox="0 0 800 800"><defs><linearGradient x1="50%" y1="0%" x2="50%" y2="100%" id="ccchaos-grad"><stop stop-color="hsl(206, 75%, 49%)" stop-opacity="1" offset="0%"></stop><stop stop-color="hsl(331, 90%, 56%)" stop-opacity="1" offset="100%"></stop></linearGradient></defs><g stroke-width="2" stroke="url(#ccchaos-grad)" fill="none" stroke-linecap="round"><path d="M409.19 128.03C419.28 128.22 429.58 127.94 440.07 127.25 450.58 125.76 461.29 124.16 472.14 122.65 482.98 120.92 493.93 119.72 504.88 119.22 515.74 119.13 526.5 120.07 536.99 122.1 547.21 124.89 556.97 128.85 566.07 133.93 574.62 139.72 582.27 146.49 588.82 154.07 594.58 162.08 599.07 170.66 602.21 179.62 604.57 188.67 605.68 197.87 605.66 207.13 605.36 216.18 604.44 225.14 603.27 233.99 602.82 242.48 602.93 250.83 604.06 259.05 606.99 266.92 611.61 274.71 618.1 282.48 626.78 289.97 637.22 297.52 649.11 305.19 662.12 312.66 675.42 320.33 688.2 328.25 699.89 336.05 709.45 344.16 716.1 352.61 719.75 361 719.71 369.76 715.92 378.92 709.29 388.05 699.87 397.6 688.52 407.59 676.93 417.57 665.82 427.77 656.2 438.15 649.13 448.54 644.73 459.12 643.13 469.83 644.63 480.55 648.37 491.37 653.69 502.24 660.45 513.05 667.26 523.83 673.32 534.46 678.59 544.91 681.85 555.08 682.75 564.81 681.6 574.17 677.81 582.9 671.56 590.84 663.41 598.18 653.36 604.54 641.88 609.79 629.48 614.31 616.45 617.64 603.22 619.77 590.09 621.29 577.33 621.76 565.13 621.34 553.6 620.81 542.81 619.83 532.75 618.7 523.45 618.29 514.76 618.36 506.55 619.23 498.91 621.62 491.52 625.28 484.23 630.38 477.27 637.26 470.2 645.51 462.94 654.93 455.79 665.44 448.32 676.37 440.46 687.16 432.63 697.54 424.36 706.64 415.65 713.85 406.93 719.09 397.76 721.6 388.16 721.11 378.57 718.14 368.81 712.45 358.94 704.53 349.11 695.28 339.22 684.92 329.34 674.11 319.56 663.72 309.85 653.96 300.3 645.26 290.92 638.21 281.78 632.68 272.96 628.68 264.38 626.54 256.21 625.66 248.52 625.77 241.12 627.05 234.24 628.66 227.95 630.22 219.15 632.56 204.39 632.18 198.11 628.5 193.88 624.77 189.83 619.71 185.86 613.45 181.46 606.4 176.98 598.32 172.36 589.41 167.17 579.94 161.81 569.87 156.31 559.38 150.38 548.61 144.46 537.6 138.7 526.49 132.88 515.29 127.51 504.11 122.76 493.02 118.41 481.94 114.93 471 112.47 460.25 110.62 449.53 109.83 439 110.07 428.7 110.77 418.41 112.29 408.33 114.47 398.48 116.6 388.63 118.99 379.23 121.46 370.26 123.4 361.27 125.24 352.71 126.92 344.55 127.98 336.36 128.99 328.55 130.02 321.12 130.73 313.6 131.74 306.4 133.19 299.5 134.78 292.43 137.09 285.58 140.19 278.9 143.77 271.95 148.28 265.06 153.68 258.18 159.63 250.92 166.41 243.57 173.9 236.09 181.77 228.17 190.17 220.07 198.95 211.81 207.82 203.17 216.89 194.42 226.06 185.65 235.07 176.73 244.07 167.98 253.01 159.55 261.67 151.34 270.26 143.72 278.8 136.89 287.04 130.66 295.27 125.44 303.55 121.37 311.59 118.11 319.75 116.04 328.08 115.18 336.25 114.96 344.66 115.72 353.34 117.32 361.94 119.05 370.87 121.18 380.17 123.51 389.42 125.28 399.09 126.84 409.18 128.03" stroke-dasharray="5 1" transform="rotate(0, 400, 400)" opacity="0.38"></path><path d="M415.57 139.43C425.42 139.64 435.4 139.41 445.48 138.78 455.58 137.38 465.76 135.85 475.98 134.38 486.16 132.65 496.31 131.37 506.33 130.7 516.21 130.36 525.83 130.94 535.05 132.54 543.95 134.8 552.26 138.17 559.83 142.62 566.88 147.77 572.98 153.89 578.02 160.84 582.41 168.29 585.67 176.36 587.77 184.91 589.36 193.63 590 202.62 589.85 211.74 589.74 220.77 589.37 229.8 589.08 238.77 589.73 247.48 591.15 256.09 593.71 264.58 598.03 272.77 603.94 280.88 611.53 288.95 620.97 296.74 631.83 304.56 643.75 312.43 656.39 320.11 668.99 327.93 680.81 335.93 691.39 343.81 699.81 351.92 705.43 360.31 708.27 368.64 707.71 377.28 703.74 386.26 697.25 395.21 688.24 404.54 677.48 414.23 666.5 423.93 655.9 433.78 646.58 443.76 639.51 453.74 634.79 463.84 632.59 474.01 633.25 484.15 636.02 494.32 640.39 504.44 646.3 514.46 652.51 524.34 658.31 533.97 663.7 543.38 667.5 552.41 669.34 560.92 669.49 569.04 667.27 576.47 662.77 583.09 656.47 589.16 648.22 594.29 638.4 598.37 627.49 601.87 615.66 604.33 603.33 605.77 590.79 606.81 578.28 607.05 566.05 606.63 554.21 606.33 542.91 605.82 532.19 605.36 522.07 605.74 512.52 606.7 503.46 608.53 494.93 611.81 486.74 616.3 478.78 622.07 471.16 629.41 463.58 637.91 455.97 647.33 448.52 657.62 440.9 668.13 433.04 678.35 425.23 688.09 417.12 696.54 408.7 703.16 400.27 707.96 391.5 710.22 382.41 709.71 373.31 706.92 364.13 701.63 354.91 694.24 345.72 685.58 336.53 675.8 327.43 665.49 318.41 655.44 309.52 645.82 300.85 637.05 292.33 629.69 284.09 623.64 276.21 618.95 268.52 615.96 261.26 614.19 254.47 613.42 244.86 614.32 228.39 617.82 221.43 618.75 214.83 618.39 202.54 611.33 196.36 604.42 191.78 598.73 187.07 592.03 182.2 584.45 176.79 576.33 171.23 567.52 165.56 558.18 159.53 548.51 153.57 538.5 147.82 528.26 142.09 517.88 136.85 507.41 132.27 496.94 128.12 486.42 124.86 475.97 122.6 465.65 120.96 455.34 120.36 445.17 120.76 435.19 121.61 425.22 123.23 415.43 125.51 405.86 127.74 396.28 130.2 387.13 132.73 378.38 134.76 369.62 136.66 361.24 138.39 353.24 139.51 345.18 140.52 337.47 141.52 330.07 142.15 322.57 143.01 315.33 144.23 308.31 145.52 301.11 147.44 294.06 150.08 287.11 153.14 279.89 157.06 272.68 161.84 265.43 167.17 257.84 173.32 250.14 180.22 242.31 187.55 234.11 195.47 225.77 203.85 217.32 212.43 208.6 221.29 199.86 230.34 191.18 239.34 182.47 248.4 174.02 257.47 165.98 266.34 158.25 275.17 151.17 283.95 144.91 292.5 139.28 301.02 134.65 309.55 131.14 317.87 128.38 326.26 126.75 334.74 126.24 343.09 126.29 351.6 127.23 360.32 128.92 368.96 130.67 377.86 132.78 387.06 135.05 396.22 136.77 405.72 138.27 415.56 139.43" stroke-dasharray="7 10" transform="rotate(4.04, 400, 400)" opacity="0.58"></path><path d="M420.13 150.84C429.68 151.07 439.27 150.88 448.86 150.31 458.44 149 468 147.56 477.46 146.13 486.87 144.42 496.12 143.09 505.11 142.29 513.93 141.73 522.37 142.01 530.3 143.19 537.91 144.97 544.86 147.78 551.03 151.6 556.75 156.1 561.56 161.54 565.39 167.84 568.74 174.66 571.14 182.15 572.62 190.18 573.85 198.47 574.41 207.1 574.51 215.97 574.92 224.83 575.36 233.79 576.14 242.75 577.99 251.55 580.74 260.29 584.66 268.96 590.23 277.39 597.23 285.75 605.68 294.05 615.64 302.12 626.68 310.18 638.41 318.25 650.53 326.15 662.32 334.13 673.12 342.23 682.59 350.21 689.92 358.36 694.58 366.72 696.67 375.02 695.65 383.56 691.55 392.37 685.22 401.16 676.63 410.24 666.44 419.62 656.06 429.01 645.97 438.47 636.96 447.99 629.93 457.51 624.97 467.06 622.24 476.59 622.12 486.08 623.99 495.51 627.42 504.78 632.45 513.94 637.96 522.86 643.36 531.44 648.66 539.79 652.78 547.68 655.31 554.99 656.5 561.94 655.64 568.17 652.7 573.61 648.13 578.57 641.65 582.66 633.55 585.81 624.27 588.53 613.87 590.38 602.72 591.39 591.12 592.21 579.26 592.44 567.4 592.25 555.68 592.35 544.25 592.43 533.24 592.73 522.63 593.93 512.5 595.79 502.82 598.52 493.58 602.61 484.71 607.81 476.14 614.14 467.89 621.82 459.8 630.45 451.8 639.79 443.98 649.78 436.12 659.83 428.17 669.47 420.29 678.56 412.25 686.37 404.02 692.44 395.79 696.81 387.36 698.83 378.71 698.3 370.06 695.7 361.41 690.78 352.81 683.9 344.24 675.82 335.75 666.62 327.4 656.83 319.13 647.16 311.04 637.76 303.22 629 295.52 621.42 288.12 614.95 281.11 609.67 274.24 605.93 267.79 603.32 261.78 601.7 253.2 601.36 238.32 603.29 231.84 604.07 225.48 604.13 213.06 599.22 206.58 593.88 201.76 589.4 196.8 583.95 191.67 577.63 186.05 570.8 180.3 563.25 174.5 555.09 168.41 546.6 162.46 537.66 156.77 528.4 151.17 518.96 146.11 509.32 141.73 499.58 137.82 489.77 134.8 479.94 132.76 470.15 131.35 460.35 130.93 450.63 131.48 441.04 132.46 431.46 134.19 422.01 136.55 412.72 138.85 403.43 141.38 394.52 143.97 385.96 146.08 377.39 148.05 369.15 149.85 361.23 151.03 353.26 152.08 345.57 153.07 338.13 153.66 330.58 154.42 323.22 155.46 316.03 156.49 308.65 158.06 301.36 160.27 294.12 162.83 286.63 166.19 279.11 170.35 271.53 175.02 263.65 180.51 255.67 186.75 247.58 193.45 239.2 200.79 230.74 208.65 222.23 216.79 213.55 225.29 204.93 234.06 196.47 242.89 188.08 251.86 180.03 260.9 172.48 269.83 165.28 278.78 158.79 287.7 153.15 296.45 148.12 305.19 144.09 313.91 141.12 322.46 138.85 331.05 137.63 339.68 137.43 348.2 137.72 356.82 138.8 365.57 140.56 374.26 142.33 383.13 144.4 392.21 146.6 401.27 148.26 410.57 149.71 420.12 150.84" stroke-dasharray="0 6" transform="rotate(8.08, 400, 400)" opacity="0.27"></path><path d="M422.34 162.24C431.54 162.49 440.66 162.34 449.68 161.85 458.68 160.63 467.54 159.28 476.2 157.92 484.78 156.25 493.09 154.89 501.03 154 508.8 153.26 516.1 153.26 522.83 154.08 529.27 155.4 535.03 157.68 540.03 160.91 544.67 164.75 548.49 169.52 551.47 175.14 554.15 181.27 556.07 188.12 557.32 195.56 558.56 203.31 559.41 211.48 560.07 219.96 561.24 228.52 562.67 237.26 564.62 246.08 567.69 254.82 571.71 263.57 576.86 272.28 583.49 280.84 591.36 289.34 600.43 297.78 610.67 306.05 621.66 314.29 633.03 322.52 644.48 330.6 655.37 338.71 665.12 346.89 673.5 354.96 679.78 363.15 683.53 371.47 684.95 379.74 683.53 388.19 679.34 396.82 673.2 405.43 665.02 414.26 655.4 423.29 645.6 432.33 636.02 441.37 627.35 450.38 620.4 459.38 615.25 468.33 612.07 477.17 611.25 485.96 612.26 494.59 614.79 502.99 618.91 511.26 623.67 519.21 628.55 526.76 633.59 534.08 637.79 540.89 640.77 547.1 642.88 555.58 636 568.3 627.19 572.41 619.59 574.6 610.76 576.08 600.99 576.92 590.61 577.74 579.72 578.18 568.59 578.39 557.37 579.02 546.22 579.78 535.28 580.89 524.56 582.92 514.18 585.63 504.16 589.19 494.47 594 485.13 599.79 476.1 606.56 467.35 614.46 458.82 623.11 450.47 632.28 442.3 641.91 434.19 651.45 426.12 660.5 418.13 668.94 410.1 676.14 402.01 681.67 393.93 685.64 385.76 687.44 377.5 686.9 369.23 684.47 361.07 679.91 353.05 673.53 345.04 666.01 337.19 657.39 329.55 648.13 321.95 638.88 314.6 629.75 307.55 621.08 300.58 613.38 293.93 606.59 287.67 600.83 278.6 594.74 262.53 589.05 255.49 588.5 248.71 589.12 236.13 589.62 229.96 588.49 225.51 587.21 221.01 585.07 216.4 582.05 211.32 578.57 206.09 574.21 200.71 569.01 194.91 563.38 189.02 557 183.13 550 177.05 542.66 171.15 534.82 165.58 526.58 160.16 518.14 155.31 509.41 151.18 500.49 147.53 491.48 144.76 482.35 142.97 473.18 141.77 463.99 141.54 454.8 142.24 445.66 143.35 436.51 145.17 427.44 147.59 418.47 149.96 409.49 152.54 400.82 155.18 392.44 157.36 384.05 159.41 375.92 161.27 368.05 162.53 360.13 163.65 352.42 164.67 344.9 165.25 337.27 165.95 329.78 166.85 322.39 167.67 314.83 168.96 307.31 170.79 299.8 172.88 292.07 175.7 284.29 179.26 276.46 183.28 268.37 188.08 260.21 193.63 251.98 199.63 243.54 206.3 235.07 213.54 226.63 221.11 218.13 229.11 209.76 237.46 201.64 245.95 193.67 254.65 186.11 263.49 179.11 272.33 172.52 281.22 166.65 290.14 161.63 298.96 157.22 307.78 153.77 316.59 151.32 325.28 149.51 333.98 148.67 342.69 148.75 351.32 149.25 359.99 150.46 368.74 152.26 377.43 154.02 386.24 156.04 395.16 158.17 404.07 159.76 413.13 161.15 422.33 162.24" stroke-dasharray="2 11" transform="rotate(12.12, 400, 400)" opacity="0.14"></path><path d="M421.93 173.65C430.72 173.91 439.33 173.81 447.74 173.38 456.13 172.27 464.27 171.01 472.11 169.73 479.87 168.12 487.27 166.76 494.23 165.8 504.18 164.8 520.88 166.99 527.39 170.55 532.84 175.82 540.19 191.3 542.49 201.16 544.05 208.29 545.46 215.9 546.91 223.87 549 232.01 551.5 240.39 554.64 248.92 558.87 257.46 564.03 266.07 570.24 274.69 577.71 283.23 586.21 291.74 595.64 300.22 605.92 308.58 616.66 316.9 627.49 325.2 638.16 333.38 648.1 341.57 656.79 349.78 664.1 357.91 669.39 366.09 672.31 374.34 673.12 382.55 671.37 390.87 667.13 399.3 661.19 407.71 653.42 416.25 644.36 424.92 635.14 433.58 626.06 442.17 617.74 450.64 610.91 459.09 605.62 467.41 602.06 475.54 600.62 483.61 600.85 491.45 602.52 498.97 605.75 506.38 609.71 513.41 613.96 519.98 620.65 529.28 628.96 544.6 629.03 550.4 625.72 555.13 609.7 561.09 597.82 562.66 588.84 563.68 579.17 564.49 569.06 565.23 558.68 566.48 548.15 567.98 537.64 569.9 527.18 572.72 516.89 576.23 506.86 580.52 497.02 585.93 487.47 592.19 478.21 599.27 469.15 607.28 460.34 615.86 451.75 624.78 443.31 633.99 435.02 643 426.86 651.43 418.77 659.25 410.74 665.84 402.76 670.87 394.8 674.45 386.85 676.04 378.92 675.49 370.99 673.24 363.25 669.02 355.73 663.11 348.21 656.14 340.92 648.1 333.89 639.38 326.88 630.58 320.16 621.76 313.75 613.26 307.39 605.53 301.36 598.53 295.68 592.39 287.4 585.42 272.55 577.46 265.88 575.79 259.29 575.49 246.54 575.15 240.08 574.17 233 572.4 217.64 564.76 209.31 558.78 203.36 554.18 197.39 548.87 191.48 542.92 185.45 536.68 179.67 529.89 174.26 522.65 169.07 515.21 164.48 507.42 160.62 499.35 157.26 491.18 154.77 482.81 153.22 474.32 152.25 465.79 152.2 457.18 153.04 448.53 154.26 439.89 156.16 431.23 158.62 422.59 161.05 413.95 163.67 405.54 166.36 397.34 168.6 389.13 170.72 381.12 172.66 373.29 174.02 365.42 175.21 357.69 176.28 350.09 176.9 342.39 177.57 334.77 178.39 327.21 179.06 319.5 180.1 311.8 181.61 304.08 183.3 296.19 185.62 288.24 188.61 280.25 192 272.07 196.12 263.85 200.95 255.6 206.23 247.24 212.17 238.91 218.71 230.68 225.6 222.47 232.98 214.48 240.76 206.8 248.75 199.34 257.03 192.36 265.51 185.96 274.06 180.01 282.74 174.79 291.47 170.4 300.2 166.6 308.95 163.71 317.69 161.76 326.38 160.37 335.08 159.87 343.76 160.21 352.39 160.88 361.03 162.18 369.68 164 378.31 165.74 386.97 167.7 395.68 169.74 404.37 171.26 413.13 172.6 421.92 173.65" stroke-dasharray="5 9" transform="rotate(16.16, 400, 400)" opacity="0.10"></path><path d="M418.95 185.05C427.29 185.32 435.36 185.27 443.15 184.91 450.91 183.9 458.35 182.76 465.42 181.56 472.42 180.03 479 178.7 485.1 177.69 493.81 176.51 508.21 177.74 513.81 180.54 518.64 184.9 525.8 198.31 528.62 207.1 530.75 213.55 532.91 220.51 535.29 227.89 538.36 235.49 541.95 243.39 546.21 251.5 551.49 259.69 557.62 268.01 564.66 276.4 572.73 284.77 581.61 293.16 591.16 301.54 601.27 309.85 611.58 318.14 621.74 326.4 631.54 334.58 640.48 342.76 648.12 350.92 654.39 359.02 658.75 367.13 660.92 375.26 661.19 383.37 659.16 391.51 654.92 399.69 649.19 407.86 641.84 416.09 633.32 424.36 624.66 432.62 616.08 440.73 608.12 448.64 601.44 456.54 596.08 464.22 592.21 471.65 590.23 479.03 589.75 486.1 590.61 492.81 592.97 499.41 596.11 505.6 599.68 511.32 610.08 525.93 614.15 541.48 609.76 544.5 605.36 546.32 599.71 547.75 592.97 548.89 585.48 550.26 577.18 551.56 568.29 552.92 559.01 554.85 549.39 557.09 539.62 559.79 529.75 563.35 519.9 567.56 510.16 572.48 500.5 578.37 491.03 584.98 481.78 592.24 472.67 600.25 463.78 608.67 455.11 617.26 446.57 626.01 438.2 634.46 430.01 642.28 421.89 649.47 413.9 655.48 406.04 660.02 398.2 663.24 390.46 664.64 382.81 664.08 375.16 662 367.78 658.11 360.68 652.66 353.58 646.22 346.75 638.74 340.22 630.57 333.69 622.24 327.46 613.8 321.56 605.52 315.66 597.85 310.08 590.74 304.83 584.33 299.55 578.93 294.59 574.33 289.92 570.5 282.92 566.61 269.74 562.53 263.32 561.51 256.51 560.94 242.16 558.3 234.44 555.65 228.87 553.5 223.19 550.68 217.43 547.19 211.41 543.44 205.42 539.02 199.55 534 193.64 528.73 188.04 522.9 182.86 516.6 177.94 510.12 173.65 503.23 170.09 496.01 167.03 488.68 164.82 481.09 163.52 473.29 162.78 465.45 162.9 457.45 163.87 449.33 165.2 441.21 167.16 433 169.66 424.73 172.12 416.46 174.78 408.33 177.5 400.34 179.8 392.33 181.99 384.45 184.01 376.69 185.46 368.89 186.75 361.17 187.9 353.52 188.58 345.79 189.27 338.1 190.04 330.43 190.62 322.64 191.49 314.84 192.73 307.01 194.07 299.05 195.96 291.05 198.44 283.03 201.23 274.89 204.71 266.75 208.84 258.63 213.38 250.48 218.56 242.42 224.34 234.53 230.49 226.73 237.16 219.22 244.26 212.07 251.62 205.21 259.32 198.85 267.27 193.11 275.37 187.82 283.65 183.25 292.04 179.5 300.48 176.28 308.99 173.92 317.51 172.43 326.04 171.44 334.57 171.24 343.08 171.79 351.58 172.61 360.07 173.97 368.53 175.79 376.97 177.49 385.41 179.38 393.82 181.32 402.22 182.77 410.61 184.04 418.94 185.05" stroke-dasharray="10 1" transform="rotate(20.200000000000003, 400, 400)" opacity="0.59"></path><path d="M413.76 196.46C421.6 196.74 429.13 196.73 436.32 196.44 443.48 195.54 450.28 194.5 456.67 193.41 465.95 191.32 482.07 188.35 488.82 188.05 494.93 188.77 504.72 194.41 508.64 199.4 511.29 203.43 513.78 208.15 516.2 213.49 519.05 219.22 522.07 225.48 525.41 232.18 529.46 239.15 534.06 246.46 539.3 254.04 545.44 261.75 552.33 269.65 559.96 277.66 568.39 285.71 577.41 293.83 586.84 301.97 596.59 310.09 606.31 318.22 615.68 326.32 624.56 334.39 632.48 342.43 639.08 350.44 644.38 358.43 647.88 366.39 649.37 374.33 649.17 382.25 646.92 390.16 642.7 398.05 637.2 405.94 630.27 413.81 622.28 421.66 614.17 429.5 606.09 437.11 598.5 444.48 592.01 451.82 586.62 458.9 582.52 465.67 580.07 472.39 578.96 478.76 579.07 484.75 581.76 493.38 590.97 508.2 595.71 514.26 600.52 523.7 593.68 533.51 586.31 535.86 580.31 537.7 573.45 539.57 565.89 541.59 557.87 544.2 549.38 547.16 540.59 550.58 531.58 554.79 522.45 559.6 513.29 565.02 504.11 571.26 495 578.09 486.03 585.42 477.12 593.33 468.38 601.49 459.83 609.69 451.36 617.94 443.07 625.81 434.97 633.02 426.92 639.6 419.04 645.05 411.33 649.14 403.64 652.02 396.1 653.24 388.71 652.68 381.32 650.75 374.24 647.17 367.48 642.17 360.71 636.24 354.24 629.32 348.09 621.7 341.91 613.87 336.05 605.83 330.5 597.84 324.91 590.31 319.62 583.18 314.62 576.6 309.56 570.87 304.75 565.81 300.18 561.43 293.22 556.52 279.74 550.37 273 548.48 265.81 547.26 250.62 544.18 242.52 541.77 236.77 539.93 230.94 537.55 225.1 534.61 219.08 531.49 213.14 527.78 207.38 523.51 201.66 519.06 196.3 514.07 191.4 508.59 186.8 502.97 182.83 496.91 179.59 490.49 176.85 483.96 174.94 477.12 173.89 470.01 173.36 462.85 173.66 455.47 174.75 447.9 176.16 440.32 178.18 432.58 180.7 424.7 183.19 416.83 185.86 409.01 188.6 401.25 190.95 393.49 193.2 385.78 195.3 378.13 196.86 370.44 198.25 362.79 199.49 355.16 200.27 347.48 201.01 339.79 201.79 332.1 202.32 324.33 203.07 316.53 204.11 308.71 205.18 300.82 206.71 292.9 208.74 284.98 211 277.02 213.87 269.09 217.34 261.25 221.16 253.44 225.6 245.78 230.61 238.35 235.97 231.07 241.86 224.12 248.21 217.59 254.83 211.37 261.84 205.69 269.14 200.62 276.64 196 284.36 192.08 292.24 188.93 300.23 186.28 308.32 184.42 316.46 183.35 324.65 182.7 332.86 182.77 341.06 183.5 349.28 184.42 357.47 185.83 365.62 187.62 373.77 189.27 381.88 191.07 389.91 192.91 397.95 194.28 405.9 195.49 413.75 196.46" stroke-dasharray="0 0" transform="rotate(24.24, 400, 400)" opacity="0.27"></path><path d="M406.95 207.87C414.29 208.16 421.28 208.18 427.92 207.97 434.53 207.17 440.76 206.25 446.59 205.26 455.07 203.32 469.79 200.32 476.04 199.79 481.85 200.09 491.77 204.35 496.18 208.44 499.3 211.8 502.39 215.81 505.56 220.43 509.19 225.42 513.08 230.94 517.35 236.93 522.28 243.19 527.74 249.83 533.79 256.78 540.58 263.91 547.99 271.26 555.95 278.77 564.5 286.37 573.42 294.08 582.53 301.85 591.75 309.64 600.75 317.46 609.25 325.28 617.17 333.1 624.08 340.9 629.69 348.66 634.07 356.41 636.78 364.13 637.66 371.79 637.06 379.45 634.64 387.07 630.48 394.62 625.23 402.17 618.71 409.65 611.24 417.05 603.66 424.45 596.08 431.58 588.87 438.41 582.59 445.23 577.23 451.74 572.96 457.91 569.29 466.92 569.41 482.94 572.27 489.83 584.16 507.87 583.22 520.77 577.83 523.79 573.24 526.16 567.78 528.63 561.58 531.32 554.89 534.57 547.65 538.19 539.98 542.24 532.04 547.01 523.84 552.28 515.49 558.07 507.04 564.55 498.55 571.47 490.09 578.76 481.63 586.46 473.26 594.3 465.03 602.06 456.83 609.78 448.78 617.06 440.9 623.66 433.06 629.64 425.38 634.57 417.88 638.22 410.39 640.78 403.07 641.83 395.93 641.27 388.79 639.49 381.97 636.22 375.48 631.64 368.97 626.21 362.77 619.83 356.88 612.76 350.96 605.44 345.33 597.84 339.98 590.19 334.58 582.87 329.44 575.81 324.54 569.17 319.55 563.22 314.76 557.81 310.15 552.98 303.06 547.2 289.02 539.1 281.88 536.29 274.29 534.3 258.33 530.35 249.94 527.9 244.08 526.17 238.19 524.03 232.35 521.42 226.39 518.73 220.59 515.53 215.02 511.83 209.56 508.01 204.49 503.7 199.91 498.92 195.67 494.02 192.05 488.7 189.16 482.98 186.75 477.18 185.13 471.03 184.33 464.57 184.02 458.07 184.47 451.28 185.67 444.26 187.16 437.22 189.21 429.97 191.74 422.51 194.24 415.05 196.92 407.57 199.66 400.1 202.05 392.62 204.36 385.14 206.53 377.66 208.2 370.16 209.7 362.65 211.05 355.13 211.94 347.57 212.77 339.99 213.59 332.39 214.13 324.75 214.83 317.09 215.74 309.42 216.61 301.71 217.84 294.01 219.5 286.35 221.32 278.7 223.65 271.13 226.52 263.69 229.68 256.34 233.4 249.19 237.66 242.32 242.23 235.64 247.32 229.34 252.87 223.48 258.7 217.94 264.93 212.94 271.49 208.56 278.26 204.6 285.3 201.31 292.55 198.74 299.92 196.61 307.45 195.2 315.06 194.51 322.75 194.16 330.49 194.45 338.24 195.32 346.03 196.32 353.8 197.74 361.52 199.48 369.27 201.07 376.95 202.78 384.53 204.51 392.13 205.8 399.61 206.93 406.94 207.86" stroke-dasharray="3 3" transform="rotate(28.28, 400, 400)" opacity="0.51"></path><path d="M399.34 219.27C406.16 219.57 412.65 219.64 418.8 219.48 427.81 218.39 443.98 215.34 451.11 213.82 463.81 212.03 480.39 214.74 485.53 218 489.22 220.73 492.98 224.08 496.91 227.99 501.3 232.24 505.99 237.02 511.07 242.26 516.73 247.78 522.86 253.7 529.49 259.96 536.7 266.41 544.37 273.12 552.43 280.03 560.86 287.07 569.47 294.25 578.09 301.52 586.64 308.85 594.83 316.25 602.41 323.66 609.35 331.1 615.26 338.53 619.93 345.94 623.46 353.35 625.46 360.73 625.82 368.04 624.88 375.36 622.34 382.61 618.27 389.77 613.28 396.94 607.16 404.01 600.2 410.95 593.14 417.9 586.04 424.55 579.23 430.89 573.19 437.21 567.91 443.21 563.52 448.86 559.32 457.12 557.52 471.71 559.27 478 565.98 488.76 573.42 501.72 573.21 505.29 571.32 509.09 562.19 517.3 555.21 522.14 549.84 525.98 543.87 530.17 537.4 534.75 530.63 539.94 523.5 545.55 516.12 551.59 508.58 558.16 500.9 565.06 493.15 572.2 485.35 579.62 477.55 587.06 469.81 594.34 462.07 601.5 454.42 608.19 446.89 614.19 439.38 619.6 432.01 624.02 424.79 627.26 417.58 629.52 410.52 630.42 403.63 629.87 396.73 628.23 390.15 625.25 383.88 621.06 377.59 616.11 371.59 610.27 365.87 603.74 360.11 596.94 354.61 589.81 349.35 582.55 344.03 575.5 338.92 568.6 334.01 561.99 328.98 555.93 324.11 550.3 319.36 545.13 314.45 540.64 309.61 536.63 304.82 533.04 297.31 528.77 281.82 522.25 273.76 519.52 268.12 517.98 262.43 516.3 256.71 514.42 250.82 512.63 244.97 510.53 239.21 508.07 233.42 505.6 227.83 502.73 222.53 499.42 215.02 494.15 202.97 481.33 198.81 473.86 196.74 468.68 195.41 463.14 194.85 457.27 194.74 451.36 195.34 445.15 196.63 438.65 198.18 432.14 200.26 425.36 202.78 418.34 205.27 411.31 207.94 404.22 210.68 397.07 213.11 389.93 215.46 382.73 217.69 375.5 219.46 368.26 221.08 360.98 222.54 353.66 223.56 346.34 224.5 338.98 225.4 331.6 226 324.21 226.69 316.8 227.54 309.41 228.28 302.03 229.31 294.68 230.68 287.41 232.13 280.2 234.02 273.1 236.37 266.18 238.93 259.4 242 252.85 245.55 246.62 249.38 240.61 253.69 234.99 258.44 229.83 263.46 224.99 268.87 220.69 274.64 216.98 280.62 213.65 286.9 210.95 293.4 208.92 300.06 207.27 306.9 206.26 313.87 205.9 320.93 205.81 328.08 206.27 335.26 207.24 342.49 208.29 349.74 209.7 356.94 211.38 364.18 212.88 371.35 214.49 378.43 216.12 385.52 217.31 392.5 218.38 399.33 219.27" stroke-dasharray="5 10" transform="rotate(32.32, 400, 400)" opacity="0.26"></path><path d="M391.79 230.68C401.14 231.03 418.3 230.07 426.1 228.98 433.58 227.37 447.11 224.58 453.25 223.79 459.31 223.49 471.03 225.56 476.99 228.1 481.26 230.26 485.68 232.98 490.32 236.22 495.36 239.77 500.72 243.82 506.44 248.33 512.63 253.1 519.21 258.27 526.17 263.79 533.56 269.51 541.25 275.52 549.16 281.75 557.28 288.13 565.4 294.69 573.37 301.37 581.15 308.14 588.46 315 595.09 321.9 601.06 328.85 606.03 335.82 609.82 342.77 612.56 349.75 613.93 356.69 613.83 363.58 612.62 370.48 610.01 377.31 606.06 384.03 601.34 390.77 595.63 397.4 589.16 403.89 582.61 410.38 575.99 416.58 569.58 422.46 563.81 428.33 558.64 433.88 554.21 439.1 549.58 446.74 546.08 460.27 546.77 466.18 551.76 476.61 558.6 490.09 559.04 494.19 558.22 498.63 552.05 508.41 546.79 514.07 542.65 518.4 537.89 523.04 532.6 528.02 527.01 533.51 521.01 539.34 514.67 545.48 508.15 552.03 501.4 558.8 494.49 565.69 487.5 572.76 480.42 579.75 473.32 586.51 466.19 593.1 459.07 599.19 452.02 604.62 444.97 609.47 437.99 613.4 431.13 616.26 424.27 618.25 417.52 619.01 410.9 618.46 404.27 616.96 397.92 614.25 391.84 610.45 385.74 605.96 379.89 600.63 374.28 594.64 368.63 588.36 363.19 581.72 357.95 574.89 352.64 568.17 347.49 561.51 342.49 555.02 337.37 548.95 332.36 543.2 327.43 537.82 322.35 532.99 317.31 528.56 312.28 524.51 307.07 521.01 301.83 517.82 296.57 514.89 291.1 512.4 285.59 510.06 280.05 507.79 274.33 505.81 268.59 503.78 262.88 501.64 257.07 499.65 251.35 497.45 245.77 494.99 237.58 491.21 223.03 481.93 217.05 476.36 212.17 470.34 206.3 456.41 205.45 448.54 205.53 443.16 206.26 437.45 207.63 431.45 209.23 425.44 211.32 419.13 213.82 412.56 216.29 405.98 218.94 399.29 221.66 392.52 224.1 385.76 226.49 378.91 228.78 372.01 230.64 365.1 232.37 358.14 233.95 351.14 235.11 344.15 236.18 337.11 237.19 330.08 237.88 323.05 238.63 316.03 239.47 309.05 240.15 302.11 241.06 295.24 242.23 288.48 243.4 281.8 244.94 275.29 246.87 268.98 248.93 262.84 251.42 256.96 254.36 251.42 257.5 246.11 261.08 241.2 265.09 236.76 271.62 230.8 286.79 222.1 295.25 219.48 301.13 218.25 307.21 217.6 313.46 217.51 319.8 217.63 326.27 218.23 332.79 219.26 339.39 220.33 346.02 221.7 352.63 223.3 359.29 224.72 365.9 226.21 372.44 227.73 379 228.84 385.46 229.83 391.78 230.68" stroke-dasharray="8 2" transform="rotate(36.36, 400, 400)" opacity="0.13"></path><path d="M385.21 242.08C393.89 242.46 410.02 241.74 417.48 240.82 427.29 238.63 436.28 236.88 444.62 236.01 453.34 235.18 461.92 236.03 470.71 238.7 480.59 242.28 491.35 247.86 503.22 255.22 516.54 263.52 530.95 273.32 545.93 284.22 561.11 295.68 575.33 307.89 587.26 320.45 596.6 333.25 601.69 346.18 601.73 358.96 600.31 365.37 597.66 371.73 593.86 378 589.41 384.27 584.1 390.44 578.12 396.49 572.07 402.53 565.92 408.29 559.91 413.77 554.43 419.23 549.41 424.4 544.99 429.27 538.89 439 535.64 447.54 534.82 454.94 536.86 462.45 539.59 469.06 541.91 475.01 544.38 481.57 544.81 488.04 542.82 494.8 539.54 502.91 533.64 511.93 525.53 521.99 516.31 533.65 505.48 546.23 493.6 559.19 481.28 572.47 468.43 584.77 455.48 594.92 448.98 599.25 442.49 602.73 436.05 605.23 429.6 606.96 423.21 607.59 416.89 607.06 410.57 605.69 404.46 603.24 398.57 599.81 392.66 595.75 386.94 590.92 381.41 585.46 370.24 573.76 359.65 560.99 349.52 548.21 339 536.63 328.66 526.09 318.39 516.8 307.51 509.4 296.52 502.99 285.5 497.2 274.02 492.61 262.76 487.88 252.11 482.6 241.82 477.68 232.84 471.71 225.75 464.53 220.03 457.31 216.75 448.77 216.15 438.94 216.82 431.38 221.35 414.72 224.86 405.67 227.3 399.55 229.91 393.29 232.6 386.94 235.04 380.59 237.45 374.16 239.78 367.65 243.26 354.67 246.28 341.46 248.91 328.25 250.26 315.19 251.85 302.27 254.05 289.85 256.05 277.88 259.34 266.74 264.05 256.87 269.31 247.91 276.18 240.63 284.44 235.38 293.35 231.28 303.43 229.26 314.31 229.33 325.6 229.99 337.39 232.1 349.34 235.25 355.37 236.56 361.4 237.94 367.39 239.34 373.39 240.36 379.34 241.28 385.2 242.08" stroke-dasharray="8 5" transform="rotate(40.400000000000006, 400, 400)" opacity="0.18"></path><path d="M380.36 253.49C391.22 253.66 401.41 253.34 410.93 252.66 420.52 250.75 429.63 249.19 438.41 248.34 447.61 247.38 456.94 247.81 466.65 249.81 477.29 252.47 488.76 256.92 501.12 263 514.46 269.89 528.46 278.22 542.51 287.66 556.31 297.66 568.82 308.47 578.9 319.74 586.52 331.28 590.26 343.05 589.52 354.76 585.64 366.56 577.86 378.18 567.09 389.39 556.05 400.6 545.22 410.82 535.87 420.01 529.44 429.21 525.36 437.44 523.43 444.78 524.14 452.31 525.72 459.22 527.27 465.72 529.38 472.87 530.06 480.12 528.87 487.73 526.84 496.53 522.59 506.13 516.3 516.55 509.1 528.18 500.24 540.39 490.16 552.64 479.63 564.92 468.34 576.07 456.64 585.12 444.85 592.23 432.87 595.95 420.91 595.65 408.95 592.47 397.54 585.69 386.69 576.19 375.72 565.51 365.11 553.64 354.81 541.51 344.18 530.19 333.63 519.54 323.11 509.86 312.14 501.74 301.13 494.48 290.2 487.86 279.07 482.38 268.32 476.95 258.34 471.25 248.88 466.01 240.8 460.01 234.6 453.08 229.71 446.21 227.09 438.22 226.93 429.1 228 419.94 231.1 409.65 235.9 398.29 240.58 386.93 245.68 375.09 250.69 362.99 254.36 350.95 257.63 338.73 260.52 326.59 262.16 314.64 263.91 302.95 266.07 291.85 267.84 281.23 270.61 271.52 274.55 263.09 278.81 255.51 284.46 249.52 291.39 245.4 298.81 242.22 307.38 240.88 316.82 241.34 326.6 242.2 336.99 244.26 347.7 247.21 358.53 249.37 369.5 251.57 380.35 253.49" stroke-dasharray="2 7" transform="rotate(44.44, 400, 400)" opacity="0.58"></path><path d="M377.81 264.89C387.87 265.12 397.58 264.94 406.92 264.47 416.35 262.86 425.6 261.52 434.79 260.75 444.38 259.74 454.26 259.89 464.59 261.36 475.65 263.28 487.4 266.75 499.76 271.69 512.69 277.28 525.88 284.23 538.7 292.28 550.95 300.83 561.69 310.22 569.99 320.17 576.03 330.38 578.57 340.92 577.21 351.53 573.25 362.22 565.95 372.86 556.05 383.22 545.92 393.59 535.83 403.16 526.83 411.9 520.21 420.68 515.49 428.73 512.6 436.14 512.09 443.77 512.51 451.03 513.17 458.09 514.65 465.76 515.2 473.64 514.38 481.91 513.14 491.17 510.07 501.08 505.23 511.58 499.7 522.94 492.57 534.58 484.15 545.99 475.33 557.22 465.56 567.22 455.15 575.2 444.64 581.42 433.68 584.61 422.48 584.25 411.28 581.4 400.35 575.35 389.75 566.82 379.06 557.15 368.54 546.24 358.19 534.86 347.61 523.98 337.04 513.46 326.49 503.62 315.68 495.01 304.89 487.11 294.32 479.81 283.76 473.54 273.71 467.44 264.56 461.25 256.04 455.58 248.93 449.4 243.64 442.54 239.56 435.82 237.57 428.21 237.82 419.65 239.12 411.09 242.26 401.55 246.94 391.06 251.52 380.57 256.52 369.67 261.51 358.59 265.32 347.57 268.82 336.46 271.97 325.52 273.94 314.8 275.92 304.43 278.16 294.73 279.87 285.5 282.34 277.21 285.74 270.18 289.23 263.9 293.91 259.09 299.72 255.96 305.86 253.57 313.09 252.78 321.2 253.53 329.57 254.49 338.64 256.47 348.17 259.19 357.8 261.13 367.74 263.12 377.81 264.89" stroke-dasharray="2 0" transform="rotate(48.48, 400, 400)" opacity="0.46"></path><path d="M377.85 276.3C387.2 276.57 396.47 276.53 405.62 276.26 414.88 274.95 424.2 273.86 433.64 273.22 443.42 272.26 453.57 272.24 464.15 273.31 475.24 274.66 486.83 277.33 498.74 281.3 510.89 285.75 522.94 291.45 534.31 298.2 544.91 305.36 553.89 313.39 560.52 322.04 565.14 330.92 566.66 340.23 564.81 349.74 560.86 359.31 554.06 368.97 545.01 378.52 535.77 388.08 526.42 397.06 517.85 405.44 511.18 413.86 506 421.8 502.33 429.31 500.73 437.05 500.04 444.63 499.76 452.15 500.43 460.22 500.57 468.55 499.76 477.24 498.87 486.7 496.55 496.65 492.73 506.96 488.48 517.83 482.76 528.74 475.77 539.2 468.46 549.33 460.11 558.2 450.96 565.16 441.69 570.56 431.8 573.26 421.42 572.84 411.04 570.31 400.7 564.95 390.47 557.35 380.19 548.69 369.93 538.76 359.73 528.22 349.4 517.93 339.03 507.73 328.73 497.97 318.32 489.13 308.02 480.82 298.06 473.04 288.27 466.12 279.1 459.44 270.91 452.8 263.41 446.67 257.29 440.24 252.89 433.36 249.6 426.66 248.21 419.3 248.81 411.2 250.31 403.13 253.44 394.26 257.98 384.61 262.42 374.97 267.3 365.04 272.22 355.02 276.15 345.08 279.83 335.15 283.23 325.48 285.53 316.02 287.8 307.01 290.21 298.71 292.01 290.85 294.37 283.92 297.43 278.2 302.4 271.2 317.47 265.12 327.48 265.86 334.62 266.86 342.5 268.7 350.97 271.17 359.5 272.89 368.5 274.66 377.85 276.3" stroke-dasharray="1 1" transform="rotate(52.52, 400, 400)" opacity="0.13"></path><path d="M380.48 287.7C389.17 288.01 398 288.09 406.91 288.02 415.92 287 425.15 286.17 434.61 285.7 444.32 284.85 454.41 284.77 464.84 285.59 475.56 286.52 486.59 288.57 497.67 291.73 508.72 295.23 519.39 299.85 529.18 305.44 538.11 311.36 545.41 318.12 550.51 325.55 553.87 333.16 554.54 341.28 552.35 349.72 548.47 358.22 542.18 366.93 533.97 375.71 525.59 384.49 517.01 392.92 508.92 400.96 502.34 409.06 496.87 416.88 492.6 424.46 490.09 432.27 488.4 440.05 487.19 447.89 486.97 456.17 486.5 464.72 485.43 473.55 484.52 482.95 482.54 492.68 479.38 502.56 475.98 512.75 471.33 522.78 465.49 532.23 459.43 541.24 452.31 549.01 444.31 555 436.21 559.63 427.36 561.89 417.86 561.44 408.35 559.21 398.69 554.49 388.98 547.78 379.26 540.1 369.45 531.17 359.64 521.54 349.78 511.97 339.89 502.28 330.1 492.81 320.33 483.99 310.77 475.52 301.63 467.48 292.79 460.13 284.64 453.01 277.5 446.03 271.06 439.5 265.94 432.83 262.41 425.9 259.85 419.17 259 411.98 259.91 404.28 261.56 396.61 264.66 388.35 269.02 379.51 273.29 370.68 278.01 361.71 282.83 352.78 286.82 343.91 290.64 335.18 294.25 326.79 296.88 318.59 299.46 310.9 302.09 303.96 305.29 294.54 313.87 281.63 319.91 278.59 324.25 277.36 329.47 277.3 335.51 278.31 341.63 279.28 348.51 280.95 356.06 283.14 363.63 284.64 371.79 286.21 380.48 287.7" stroke-dasharray="6 6" transform="rotate(56.56, 400, 400)" opacity="0.17"></path><path d="M385.4 299.11C393.46 299.44 401.8 299.64 410.37 299.74 419 299 427.94 298.43 437.14 298.17 446.5 297.49 456.18 297.44 466.07 298.11 476.08 298.78 486.2 300.38 496.14 302.92 505.87 305.66 515.03 309.38 523.19 313.99 530.49 318.82 536.22 324.47 539.96 330.79 542.25 337.24 542.24 344.26 539.82 351.7 536.08 359.17 530.33 366.98 522.93 375.02 515.39 383.07 507.57 390.96 500.04 398.65 493.65 406.4 488.06 414.05 483.38 421.62 480.15 429.38 477.61 437.21 475.55 445.15 474.44 453.42 473.27 461.93 471.75 470.64 470.55 479.73 468.6 488.99 465.75 498.24 462.84 507.6 458.89 516.65 453.91 525.03 448.81 532.93 442.71 539.64 435.72 544.73 428.66 548.65 420.79 550.51 412.2 550.03 403.6 548.08 394.72 543.97 385.7 538.11 376.69 531.37 367.53 523.45 358.34 514.78 349.17 506.03 339.99 497 330.97 488.01 322.07 479.45 313.44 471.07 305.32 463 297.54 455.46 290.5 448.11 284.46 440.93 279.07 434.13 274.92 427.3 272.22 420.37 270.34 413.61 269.95 406.59 271.12 399.25 272.87 391.96 275.9 384.27 280.06 376.21 284.14 368.16 288.66 360.13 293.34 352.25 297.32 344.43 301.24 336.86 305 329.7 307.92 322.7 310.79 316.26 313.68 310.55 317.23 302.85 325.68 292.72 331.2 290.57 337.33 289.78 353.33 292.47 363.14 295.11 369.9 296.39 377.33 297.76 385.4 299.11" stroke-dasharray="7 1" transform="rotate(60.599999999999994, 400, 400)" opacity="0.38"></path><path d="M392.02 310.51C399.47 310.87 407.27 311.16 415.33 311.41 423.45 310.94 431.88 310.63 440.53 310.58 449.26 310.12 458.22 310.16 467.25 310.79 476.26 311.33 485.21 312.62 493.8 314.71 502.08 316.88 509.69 319.9 516.26 323.7 524.18 329.99 530.04 346.16 527.24 355.69 523.7 362.24 518.49 369.21 511.88 376.54 505.16 383.87 498.11 391.21 491.17 398.51 485.1 405.86 479.54 413.25 474.64 420.66 470.89 428.22 467.69 435.9 464.91 443.7 462.98 451.74 461.11 459.97 459.06 468.29 457.41 476.84 455.26 485.42 452.47 493.86 449.73 502.27 446.19 510.28 441.8 517.57 437.36 524.38 432.06 530.09 425.93 534.34 419.76 537.61 412.8 539.11 405.11 538.62 397.43 536.93 389.41 533.4 381.21 528.32 373.04 522.5 364.71 515.56 356.35 507.88 348.07 500.03 339.82 491.8 331.77 483.46 323.9 475.35 316.36 467.31 309.36 459.45 302.73 451.95 296.83 444.61 291.89 437.42 287.53 430.54 284.29 423.68 282.34 416.83 281.06 410.14 281.08 403.32 282.44 396.36 284.25 389.44 287.17 382.31 291.1 375 294.96 367.69 299.25 360.55 303.73 353.68 307.66 346.85 311.6 340.35 315.45 334.33 320.17 325.77 328.8 312.26 333.22 307.71 337.5 304.39 348.4 302.4 355.32 303.44 360.09 304.2 365.55 305.44 371.68 307.07 377.79 308.13 384.57 309.3 392.02 310.51" stroke-dasharray="10 8" transform="rotate(64.64, 400, 400)" opacity="0.71"></path><path d="M399.58 321.92C406.41 322.28 413.57 322.66 420.99 323.04 428.43 322.81 436.14 322.75 444 322.91 451.87 322.68 459.86 322.87 467.78 323.53 475.6 324.04 483.21 325.17 490.36 326.95 500.2 329.98 514.25 339.6 517.39 346.11 518.08 350.7 517.17 355.88 514.62 361.57 511.34 367.28 506.68 373.47 500.84 380.1 494.91 386.73 488.63 393.5 482.33 400.34 476.65 407.21 471.28 414.21 466.34 421.29 462.27 428.48 458.61 435.82 455.29 443.25 452.68 450.83 450.17 458.53 447.61 466.24 445.45 474.05 442.98 481.8 440.08 489.29 437.31 496.68 433.95 503.61 429.93 509.83 425.92 515.59 421.21 520.35 415.79 523.84 410.36 526.52 404.22 527.71 397.43 527.22 390.64 525.77 383.54 522.76 376.27 518.44 369.03 513.47 361.67 507.5 354.31 500.81 347.05 493.9 339.87 486.56 332.94 479 326.21 471.55 319.84 464.04 314.02 456.61 308.55 449.41 303.78 442.29 299.89 435.31 296.49 428.55 294.09 421.84 292.8 415.21 292.04 408.7 292.39 402.17 293.87 395.63 295.69 389.13 298.48 382.56 302.13 375.98 305.74 369.39 309.77 363.09 314.01 357.14 317.83 351.22 321.72 345.71 325.58 340.69 330.55 333.57 339.86 322.68 344.52 319.15 348.97 316.56 359.57 315.15 366.01 316.06 372.9 317.16 389.65 320.35 399.58 321.92" stroke-dasharray="6 0" transform="rotate(68.68, 400, 400)" opacity="0.18"></path><path d="M407.18 333.33C419.54 333.47 433.03 334.02 446.79 335.11 460.45 334.84 473.88 336.18 485.6 339.44 495.98 342.49 503.1 347.97 505.45 355.72 505.12 363.54 499.74 373.53 489.8 385.41 479.6 397.3 468.6 410.05 458.42 423.15 450.76 436.5 443.95 450.45 437.59 464.24 432.67 478.06 426.68 491.08 419.05 501.77 411.6 510.85 401.91 516 390.05 515.81 378.18 512.65 365.45 504.65 352.84 493.53 340.61 481.5 329.1 467.96 319.51 454.25 311.11 441.04 305.5 427.89 303.6 415.29 303.27 403.03 306.52 390.83 313.17 379.06 319.66 367.29 327.4 357 335.37 348.64 341.64 340.45 348.19 334.5 355.1 331.16 360.84 328 367.85 327.23 376.38 328.66 384.57 329.23 394.82 330.9 407.18 333.33" stroke-dasharray="8 1" transform="rotate(72.72, 400, 400)" opacity="0.58"></path><path d="M413.95 344.73C424.93 344.99 436.61 345.79 448.21 347.16 459.61 347.37 470.4 348.91 479.37 351.98 487.2 354.73 492.13 359.48 493.13 366.17 492.23 372.84 487.34 381.49 478.76 392 470 402.5 460.25 413.94 450.83 425.75 443.13 437.68 435.91 450.03 429.07 462.02 423.41 473.83 417.11 484.7 409.8 493.37 402.72 500.7 394.05 504.74 383.83 504.41 373.61 501.83 362.9 495.26 352.55 486.01 342.52 475.88 333.35 464.21 326.01 452.13 319.61 440.23 315.63 428.23 314.76 416.72 314.99 405.42 318.17 394.36 324.21 383.98 330.12 373.61 337.27 364.83 344.8 357.92 351.1 351.08 357.77 346.23 364.74 343.58 370.77 340.91 377.74 340.16 385.83 341.21 393.59 341.45 402.96 342.69 413.95 344.73" stroke-dasharray="7 0" transform="rotate(76.76, 400, 400)" opacity="0.56"></path><path d="M419.08 356.14C428.61 356.48 438.37 357.45 447.72 359.01 456.86 359.65 465.14 361.39 471.65 364.35 477.28 366.96 480.46 371.17 480.49 376.99 479.28 382.73 474.96 390.18 467.72 399.29 460.35 408.39 451.94 418.35 443.5 428.59 436.17 438.86 428.98 449.36 422.05 459.35 416.01 469.08 409.58 477.83 402.63 484.62 395.9 490.36 388.17 493.42 379.5 493 370.83 490.96 362.09 485.7 353.91 478.21 345.97 469.96 338.98 460.25 333.65 449.99 328.98 439.72 326.36 429.21 326.26 419.07 326.88 409.04 329.89 399.29 335.25 390.31 340.52 381.33 346.95 373.9 353.87 368.18 359.96 362.45 366.49 358.43 373.29 356.21 379.41 353.85 386.22 353.03 393.79 353.67 401.1 353.61 409.55 354.46 419.08 356.14" stroke-dasharray="5 7" transform="rotate(80.80000000000001, 400, 400)" opacity="0.37"></path><path d="M421.98 367.54C429.97 367.93 437.8 368.99 444.98 370.65 455 372.56 467.23 380.77 467.6 387.69 466.28 392.64 462.61 398.97 456.68 406.64 450.67 414.31 443.65 422.63 436.38 431.11 429.76 439.57 423.03 448.08 416.45 456.02 410.44 463.68 404.21 470.42 397.78 475.51 391.54 479.83 384.76 482.05 377.57 481.6 370.38 480.03 363.47 475.96 357.27 470.11 351.22 463.66 346.13 455.91 342.48 447.58 339.25 439.14 337.69 430.36 338.11 421.82 338.95 413.32 341.67 405.05 346.29 397.49 350.84 389.92 356.45 383.73 362.58 378.98 368.2 374.19 374.31 370.8 380.67 368.84 386.57 366.69 393 365.76 399.87 366.01 406.57 365.7 413.99 366.21 421.98 367.54" stroke-dasharray="10 10" transform="rotate(84.84, 400, 400)" opacity="0.15"></path><path d="M422.31 378.95C435.1 379.1 445.94 382.2 451.94 387.76 456.54 392.38 454.73 401.01 445.64 413.41 436.33 425.8 424.04 439.8 412.08 451.84 401.43 463 389.78 470.37 378.26 470.19 366.74 467.21 357.4 457.31 352.49 444.67 348.46 431.52 349.79 417.12 357.33 404.88 364.68 392.64 375.41 384.66 386.83 381.24 397.25 377.13 409.5 376.34 422.31 378.95" stroke-dasharray="8 4" transform="rotate(88.88, 400, 400)" opacity="0.36"></path><path d="M420.02 390.35C433.21 392.17 442.21 406.13 434.6 419 427.74 428.37 418.27 438.42 408.71 446.67 399.76 454.35 390.21 459.18 381.5 458.79 372.79 456.83 366.44 450.01 363.59 441.07 361.1 431.71 362.51 421.12 368.37 411.85 374.13 402.57 382.66 396.26 391.83 393.2 400.57 389.66 410.47 388.58 420.02 390.35" stroke-dasharray="5 3" transform="rotate(92.92, 400, 400)" opacity="0.94"></path><path d="M415.4 401.76C427.99 401.92 432.22 410.35 423.57 422.92 414.7 435.49 398.67 447.55 386.9 447.38 375.12 444.49 371.42 430.25 379.41 417.78 387.2 405.29 402.79 399.05 415.4 401.76" stroke-dasharray="10 10" transform="rotate(96.96, 400, 400)" opacity="0.54"></path></g></svg>