<svg xmlns="http://www.w3.org/2000/svg" version="1.1" xmlns:xlink="http://www.w3.org/1999/xlink" xmlns:svgjs="http://svgjs.dev/svgjs" viewBox="0 0 800 800"><defs><linearGradient gradientTransform="rotate(270)" x1="50%" y1="0%" x2="50%" y2="100%" id="sssquiggly-grad"><stop stop-color="hsl(206, 75%, 49%)" stop-opacity="1" offset="0%"></stop><stop stop-color="hsl(331, 90%, 56%)" stop-opacity="1" offset="100%"></stop></linearGradient></defs><g stroke-width="2.5" stroke="hsla(0, 0%, 27%, 1.00)" fill="none" stroke-linecap="round" transform="matrix(1,0,0,1,0,94.36436462402344)"><path d="M10,10C21.805555555555557,13.958333333333332,40.97222222222223,37.75,66.66666666666667,29C92.36111111111111,20.25,105.55555555555557,-30.541666666666668,133.33333333333334,-32C161.11111111111111,-33.458333333333336,172.22222222222223,20.958333333333332,200,22C227.77777777777777,23.041666666666668,238.8888888888889,-28.25,266.6666666666667,-27C294.44444444444446,-25.75,305.5555555555556,26.75,333.33333333333337,28C361.11111111111114,29.25,372.22222222222223,-26.208333333333336,400,-21C427.77777777777777,-15.791666666666666,438.8888888888889,51.541666666666664,466.6666666666667,53C494.44444444444446,54.458333333333336,505.5555555555556,-13.166666666666666,533.3333333333334,-14C561.1111111111111,-14.833333333333334,572.2222222222222,48.375,600,49C627.7777777777778,49.625,638.8888888888889,-13.5,666.6666666666667,-11C694.4444444444446,-8.5,707.6388888888889,56.625,733.3333333333334,61C759.0277777777778,65.375,778.1944444444445,20.625,790,10"></path><path d="M10,10C21.805555555555557,13.958333333333332,40.97222222222223,37.75,66.66666666666667,29C92.36111111111111,20.25,105.55555555555557,-30.541666666666668,133.33333333333334,-32C161.11111111111111,-33.458333333333336,172.22222222222223,20.958333333333332,200,22C227.77777777777777,23.041666666666668,238.8888888888889,-28.25,266.6666666666667,-27C294.44444444444446,-25.75,305.5555555555556,26.75,333.33333333333337,28C361.11111111111114,29.25,372.22222222222223,-26.208333333333336,400,-21C427.77777777777777,-15.791666666666666,438.8888888888889,51.541666666666664,466.6666666666667,53C494.44444444444446,54.458333333333336,505.5555555555556,-13.166666666666666,533.3333333333334,-14C561.1111111111111,-14.833333333333334,572.2222222222222,48.375,600,49C627.7777777777778,49.625,638.8888888888889,-13.5,666.6666666666667,-11C694.4444444444446,-8.5,707.6388888888889,56.625,733.3333333333334,61C759.0277777777778,65.375,778.1944444444445,20.625,790,10" transform="matrix(1,0,0,1,0,582)"></path><path d="M10,10C21.805555555555557,13.958333333333332,40.97222222222223,37.75,66.66666666666667,29C92.36111111111111,20.25,105.55555555555557,-30.541666666666668,133.33333333333334,-32C161.11111111111111,-33.458333333333336,172.22222222222223,20.958333333333332,200,22C227.77777777777777,23.041666666666668,238.8888888888889,-28.25,266.6666666666667,-27C294.44444444444446,-25.75,305.5555555555556,26.75,333.33333333333337,28C361.11111111111114,29.25,372.22222222222223,-26.208333333333336,400,-21C427.77777777777777,-15.791666666666666,438.8888888888889,51.541666666666664,466.6666666666667,53C494.44444444444446,54.458333333333336,505.5555555555556,-13.166666666666666,533.3333333333334,-14C561.1111111111111,-14.833333333333334,572.2222222222222,48.375,600,49C627.7777777777778,49.625,638.8888888888889,-13.5,666.6666666666667,-11C694.4444444444446,-8.5,707.6388888888889,56.625,733.3333333333334,61C759.0277777777778,65.375,778.1944444444445,20.625,790,10" transform="matrix(1,0,0,1,0,485)"></path><path d="M10,10C21.805555555555557,13.958333333333332,40.97222222222223,37.75,66.66666666666667,29C92.36111111111111,20.25,105.55555555555557,-30.541666666666668,133.33333333333334,-32C161.11111111111111,-33.458333333333336,172.22222222222223,20.958333333333332,200,22C227.77777777777777,23.041666666666668,238.8888888888889,-28.25,266.6666666666667,-27C294.44444444444446,-25.75,305.5555555555556,26.75,333.33333333333337,28C361.11111111111114,29.25,372.22222222222223,-26.208333333333336,400,-21C427.77777777777777,-15.791666666666666,438.8888888888889,51.541666666666664,466.6666666666667,53C494.44444444444446,54.458333333333336,505.5555555555556,-13.166666666666666,533.3333333333334,-14C561.1111111111111,-14.833333333333334,572.2222222222222,48.375,600,49C627.7777777777778,49.625,638.8888888888889,-13.5,666.6666666666667,-11C694.4444444444446,-8.5,707.6388888888889,56.625,733.3333333333334,61C759.0277777777778,65.375,778.1944444444445,20.625,790,10" transform="matrix(1,0,0,1,0,388)"></path><path d="M10,10C21.805555555555557,13.958333333333332,40.97222222222223,37.75,66.66666666666667,29C92.36111111111111,20.25,105.55555555555557,-30.541666666666668,133.33333333333334,-32C161.11111111111111,-33.458333333333336,172.22222222222223,20.958333333333332,200,22C227.77777777777777,23.041666666666668,238.8888888888889,-28.25,266.6666666666667,-27C294.44444444444446,-25.75,305.5555555555556,26.75,333.33333333333337,28C361.11111111111114,29.25,372.22222222222223,-26.208333333333336,400,-21C427.77777777777777,-15.791666666666666,438.8888888888889,51.541666666666664,466.6666666666667,53C494.44444444444446,54.458333333333336,505.5555555555556,-13.166666666666666,533.3333333333334,-14C561.1111111111111,-14.833333333333334,572.2222222222222,48.375,600,49C627.7777777777778,49.625,638.8888888888889,-13.5,666.6666666666667,-11C694.4444444444446,-8.5,707.6388888888889,56.625,733.3333333333334,61C759.0277777777778,65.375,778.1944444444445,20.625,790,10" transform="matrix(1,0,0,1,0,291)"></path><path d="M10,10C21.805555555555557,13.958333333333332,40.97222222222223,37.75,66.66666666666667,29C92.36111111111111,20.25,105.55555555555557,-30.541666666666668,133.33333333333334,-32C161.11111111111111,-33.458333333333336,172.22222222222223,20.958333333333332,200,22C227.77777777777777,23.041666666666668,238.8888888888889,-28.25,266.6666666666667,-27C294.44444444444446,-25.75,305.5555555555556,26.75,333.33333333333337,28C361.11111111111114,29.25,372.22222222222223,-26.208333333333336,400,-21C427.77777777777777,-15.791666666666666,438.8888888888889,51.541666666666664,466.6666666666667,53C494.44444444444446,54.458333333333336,505.5555555555556,-13.166666666666666,533.3333333333334,-14C561.1111111111111,-14.833333333333334,572.2222222222222,48.375,600,49C627.7777777777778,49.625,638.8888888888889,-13.5,666.6666666666667,-11C694.4444444444446,-8.5,707.6388888888889,56.625,733.3333333333334,61C759.0277777777778,65.375,778.1944444444445,20.625,790,10" transform="matrix(1,0,0,1,0,194)"></path><path d="M10,10C21.805555555555557,13.958333333333332,40.97222222222223,37.75,66.66666666666667,29C92.36111111111111,20.25,105.55555555555557,-30.541666666666668,133.33333333333334,-32C161.11111111111111,-33.458333333333336,172.22222222222223,20.958333333333332,200,22C227.77777777777777,23.041666666666668,238.8888888888889,-28.25,266.6666666666667,-27C294.44444444444446,-25.75,305.5555555555556,26.75,333.33333333333337,28C361.11111111111114,29.25,372.22222222222223,-26.208333333333336,400,-21C427.77777777777777,-15.791666666666666,438.8888888888889,51.541666666666664,466.6666666666667,53C494.44444444444446,54.458333333333336,505.5555555555556,-13.166666666666666,533.3333333333334,-14C561.1111111111111,-14.833333333333334,572.2222222222222,48.375,600,49C627.7777777777778,49.625,638.8888888888889,-13.5,666.6666666666667,-11C694.4444444444446,-8.5,707.6388888888889,56.625,733.3333333333334,61C759.0277777777778,65.375,778.1944444444445,20.625,790,10" transform="matrix(1,0,0,1,0,97)"></path></g></svg>